<svg width="303" height="120" xmlns="http://www.w3.org/2000/svg">
 <defs>
  <clipPath id="clip0">
   <rect width="363.8" height="159.847" fill="white" id="svg_1"/>
  </clipPath>
 </defs>
 <g>
  <title>background</title>
  <rect x="-1" y="-1" width="305" height="122" id="canvas_background" fill="none"/>
 </g>
 <g>
  <title>Layer 1</title>
  <g stroke="null" clip-path="url(#clip0)" id="svg_2">
   <path stroke="null" d="m302.090676,102.450728l-112.278771,0l0,0.69442l112.278771,0l0,-0.69442z" fill="#E1E4E8" id="svg_3"/>
   <path stroke="null" d="m-0.266857,103.668389l10.102814,-23.352127l0.918404,7.123836l7.424088,-12.023718l1.722029,4.587397l3.482453,-8.062436l3.903381,11.224308l6.122886,-16.923319l4.592205,14.004499l6.390801,-8.305487c0,0 -6.888276,2.293548 -6.888276,1.668035c0,-0.625513 9.299128,-11.745658 9.299128,-11.745658c0,0 -8.572072,2.919061 -8.572072,2.293548c0,-0.590705 7.270973,-6.706807 9.758392,-10.564087c2.487481,-3.85734 6.926592,-17.166732 6.926592,-17.166732c0,0 7.11794,16.402189 10.906439,18.174466c1.224635,-2.641041 5.127934,-10.112331 5.127934,-10.112331l-7.730134,3.092738c0,0 11.633515,-22.275018 13.08771,-27.279063c1.4159,-5.038772 1.071519,-3.301282 3.635486,1.077249c1.760342,3.718311 3.865393,15.915726 10.332253,22.865805c6.122722,5.212529 -4.400449,1.494298 -4.400449,1.494298l9.489967,16.506412l8.3429,-14.664699l4.936586,11.398145l7.385345,-14.734154l-8.342064,5.316771c0,0 7.424394,-9.938574 9.031131,-17.757437c1.569341,-7.853591 3.559266,-20.328985 3.559266,-20.328985l10.484938,18.174466c0,0 10.026939,-25.228786 10.409288,-28.634311c1.186157,12.058365 17.067332,40.796999 17.067332,40.796999c0,0 6.161791,-11.919415 6.735325,-16.332755c1.913458,4.378552 26.903087,77.250112 26.903087,77.250112c0,0 -70.490302,4.170288 -97.966923,4.239723c-27.476703,0.069454 -78.335216,-1.598661 -85.032145,-2.120233c-4.132961,-0.312505 -9.146095,-1.18127 -9.146095,-1.18127l-0.000003,-0.000004z" fill="#E3E9EC" id="svg_4"/>
   <path stroke="null" d="m205.569255,118.402143c27.409642,0 49.628839,-2.966247 49.628839,-6.626229c0,-3.659982 -22.219198,-6.626229 -49.628839,-6.626229c-27.409642,0 -49.628839,2.966247 -49.628839,6.626229c0,3.659982 22.219198,6.626229 49.628839,6.626229z" fill="#CACFD6" id="svg_5"/>
   <path stroke="null" d="m265.046777,112.041267c0,0 1.798748,-16.679658 1.109671,-19.042948c-0.420595,1.355628 -7.806765,12.197631 -7.806765,12.197631l0,-10.564236c0,0 -1.644973,4.864712 -2.181106,6.359223c-0.535302,-2.259128 -4.400449,-8.965561 -3.826911,-8.200944c0.574369,0.764617 0.689077,7.819014 0,7.819014c-0.535302,-0.139638 -2.601701,-6.603025 -4.6681,-8.722515c0.802953,0.729896 1.377322,6.220339 2.066399,8.965561c-0.268482,-1.007663 -5.816838,-4.48278 -8.495841,-4.969629c0.267651,1.598675 4.247505,4.586944 5.051289,6.707188c0.803784,2.119489 -0.535302,4.48278 -0.535302,4.48278l5.051289,3.440397l14.235377,1.528478l0.000001,0.000001z" fill="#88929C" id="svg_10"/>
   <path stroke="null" d="m255.556802,111.867662c-0.115538,-0.347209 2.831115,-9.035002 2.831115,-9.035002c0,0 8.763492,-4.899432 10.332826,-5.733491c1.569332,-0.834058 3.75044,-0.695174 3.75044,-0.695174l4.783638,-1.633396c0,0 13.163941,3.162629 13.546301,3.266791c0.383189,0.104163 2.717239,3.995932 3.75044,5.282118c1.033199,1.285431 1.531097,2.119489 1.684041,4.204258l0.114707,2.120244l-6.964744,6.775875l-7.997945,0c0,0 -5.663895,1.980605 -6.964744,1.633396c-1.301681,-0.347209 -5.931546,-1.389594 -7.615586,-2.710501c-1.684041,-1.320153 -11.250486,-3.475118 -11.250486,-3.475118l-0.000001,0.000001z" fill="#B1B7BB" id="svg_11"/>
   <path stroke="null" d="m272.547655,97.933227c-0.038235,-0.243801 -0.650841,-6.255815 5.625659,-12.788643l0.573537,0.452128c-3.17607,3.266037 -4.476921,6.428665 -5.013054,8.513434c-0.574369,2.259128 -0.420595,3.718164 -0.420595,3.752886l-0.765549,0.070197l0.000001,-0.000001z" fill="#959DA5" id="svg_12"/>
   <path stroke="null" d="m278.861559,86.082805c-0.688246,0 -1.262615,-0.520814 -1.262615,-1.146547c0,-0.625733 0.574369,-1.146547 1.262615,-1.146547c0.689077,0 1.263446,0.520814 1.263446,1.146547c0,0.625733 -0.574369,1.146547 -1.263446,1.146547zm0,-1.598675c-0.267651,0 -0.497067,0.209081 -0.497067,0.452128c0,0.243047 0.229416,0.451373 0.497067,0.451373c0.268482,0 0.497898,-0.208325 0.497898,-0.451373c0,-0.243047 -0.229416,-0.452128 -0.497898,-0.452128z" fill="#959DA5" id="svg_13"/>
   <path stroke="null" d="m282.382583,88.06341c-0.650841,0 -1.186143,-0.486093 -1.186143,-1.077105c0,-0.590257 0.535302,-1.077105 1.186143,-1.077105c0.650841,0 1.186143,0.486849 1.186143,1.077105c0,0.591012 -0.535302,1.077105 -1.186143,1.077105zm0,-1.459037c-0.229416,0 -0.421426,0.173605 -0.421426,0.38193c0,0.208325 0.19201,0.382685 0.421426,0.382685c0.229416,0 0.420595,-0.17436 0.420595,-0.382685c0,-0.208325 -0.191179,-0.38193 -0.420595,-0.38193z" fill="#959DA5" id="svg_14"/>
   <path stroke="null" d="m277.216586,89.940608c-1.072267,0 -1.913455,-0.417406 -1.951692,-0.452128l0.382358,-0.591012c0.076472,0.034721 1.569332,0.799337 2.908419,0c1.033199,-0.590257 2.028164,-1.285431 2.946655,-1.980605l0.497067,0.521569c-0.956728,0.729896 -1.989927,1.424315 -3.023127,2.050048c-0.573537,0.347209 -1.186143,0.452128 -1.759681,0.452128l0.000001,0z" fill="#959DA5" id="svg_15"/>
   <g stroke="null" opacity="0.5" id="svg_16">
    <path stroke="null" opacity="0.5" d="m266.692581,91.886492c-0.305886,-0.868779 -0.421426,-1.807 -0.267651,-2.745222c0.114707,-0.417406 0.420595,-0.903501 0.880256,-0.903501c0.229416,0.034721 0.420595,0.104163 0.611774,0.243047c0.383189,0.312489 0.765549,0.625733 1.071435,1.007663c2.487825,2.67578 4.324808,5.803687 5.510951,9.139166c-0.152944,-1.668116 0.84202,-3.266037 2.219343,-4.378617c1.377322,-1.111826 3.137834,-1.702838 4.936582,-2.119489c0.650841,-0.173605 1.454625,-0.243047 1.951692,0.173605c0.305886,0.313244 0.421426,0.764617 0.267651,1.182023c-0.152944,0.38193 -0.420595,0.729141 -0.764717,1.007663c-0.803784,0.624977 -1.722276,1.146547 -2.640767,1.563199c-1.989927,1.008418 -3.865147,2.189687 -5.625659,3.509838c-0.152944,0.139638 -0.344123,0.243801 -0.535302,0.278522c-0.114707,0 -0.268482,0 -0.383189,-0.034721c-3.826911,-0.799337 -6.275669,-4.796024 -7.232395,-7.923176l-0.000003,0z" fill="#959DA5" id="svg_17"/>
   </g>
   <path stroke="null" d="m270.212774,108.844672c1.989927,-1.702838 4.210101,-3.23207 6.544151,-4.552223c1.645804,0.312489 3.17607,0.069441 4.439515,0.243047c2.678173,-2.154965 5.816838,-4.656385 8.571482,-6.707188c-3.137834,-0.763861 -12.551337,-3.02299 -12.551337,-3.02299l-4.783638,1.633396c0,0 -2.181937,-0.104163 -3.75044,0.695174c-1.224379,0.659698 -7.079453,3.92649 -9.376097,5.211921c1.492861,1.98136 8.61055,4.934908 10.906363,6.498861l0.000001,0.000001z" fill="#CACFD3" id="svg_18"/>
   <path stroke="null" d="m259.421118,102.415252l-0.114707,-0.138884c2.181937,-1.215989 8.113483,-4.552223 9.376097,-5.212675c1.49203,-0.763861 3.520193,-0.729141 3.788675,-0.69442l4.783638,-1.633396l0.038235,0c0.076472,0.034721 9.413503,2.258373 12.551337,3.02299l-0.038235,0.173605c-3.023127,-0.729141 -11.901327,-2.884106 -12.513101,-3.02299l-4.745403,1.633396l-0.038235,0c-0.038235,0 -2.181106,-0.104163 -3.673968,0.695174c-1.30085,0.624977 -7.232395,3.961211 -9.414334,5.1772z" fill="#E1E4E8" id="svg_19"/>
   <path stroke="null" d="m46.688264,120.277688c18.429684,0 33.369931,-1.338268 33.369931,-2.989023c0,-1.650001 -14.940246,-2.988269 -33.369931,-2.988269c-18.429684,0 -33.369931,1.338268 -33.369931,2.988269c0,1.650756 14.940246,2.989023 33.369931,2.989023z" fill="#CACFD6" id="svg_20"/>
   <path stroke="null" d="m64.827439,107.732846c0,0 0.650592,4.517501 1.951692,5.733491c1.3011,1.215989 6.620373,4.586944 6.888274,3.961211c-2.6022,-2.953548 -5.35751,-10.250992 -5.35751,-10.250992l-3.482456,0.55629z" fill="#FF7000" id="svg_21"/>
   <path stroke="null" d="m47.759783,108.045335c-0.076554,0.034721 -0.114791,0.069441 -0.153026,0.104163c-0.076554,0.069441 0,0.208325 0.038235,0.277768c0.612273,0.938221 1.071518,1.980605 1.415891,3.023745c0.229664,0.763861 0.688827,1.807 1.45421,1.459037c1.339419,-0.659698 0.229664,-2.258373 0,-3.614002c0.15311,0.834058 3.138001,-0.138884 4.094729,-1.389594c1.224545,-1.598675 -1.72211,-1.841722 -2.793629,-1.598675c-1.377654,0.312489 -2.75531,1.181269 -4.05641,1.737559z" fill="#FF7000" id="svg_22"/>
   <path stroke="null" d="m59.125475,98.280436c-1.798582,-0.173605 -3.635482,-0.138884 -5.281038,0.520814c-1.569,0.625733 -2.831864,1.77228 -3.979854,2.919582c-0.344455,0.38193 -0.727146,0.695174 -1.186309,0.972942c-0.459246,0.208325 -0.956728,0.312489 -1.45421,0.312489c-2.410937,0.069441 -4.668765,-1.146547 -6.276001,-2.745222c-1.607319,-1.598675 -2.75531,-3.544559 -3.979938,-5.421002c-1.951692,-2.988269 -4.324309,-5.977292 -7.691892,-7.610689c-4.668765,-2.293095 -10.791656,-1.59792 -15.07773,1.320907c-4.28599,2.884106 -6.77345,7.68013 -7.156132,12.475399c-0.076538,1.077105 0.153068,2.432733 1.301141,2.67578l1.760346,-3.093186c0.880172,-1.528478 1.798582,-3.092432 3.291027,-4.169538c1.492445,-1.077105 3.712037,-1.459791 5.281038,-0.486849c1.224545,0.764617 1.722027,2.189687 1.875136,3.544559c0.15311,1.355628 0.038235,2.710501 0.382691,4.031408c0.841937,3.196594 4.286074,5.421002 7.806682,6.046735c2.564047,0.451373 5.242801,0.243047 7.691974,-0.625733c4.05641,-1.459791 7.577101,-4.656385 11.90141,-4.413339c0.574036,1.389594 2.066481,2.328571 3.635482,2.745222c1.569,0.416652 3.252792,0.312489 4.860028,0.243047l-2.142953,2.328571c1.109754,2.050048 2.640519,3.89177 4.4391,5.455723c0.880172,-2.015327 0.153026,-4.066129 -1.224628,-5.838408c0.344455,-0.624977 0.918492,-1.146547 1.607319,-1.424315c1.607236,0.764617 5.816755,0.555536 7.615336,0.347209c-0.076472,1.182023 0.191345,3.892524 1.033283,5.039072c0.841853,1.146547 3.520691,3.614002 5.051373,4.343896c0.956728,0.486093 3.903382,1.111826 4.362628,0.312489c-3.635482,-1.389594 -7.232728,-4.760548 -7.194409,-8.339828c0,-1.737559 1.683791,-2.884106 1.568917,-4.343896c-0.076472,-1.286186 -2.372618,-2.779942 -3.367581,-3.509838c-2.678754,-1.980605 -5.969865,-3.23207 -9.452237,-3.614002z" fill="#FF9C57" id="svg_23"/>
   <path stroke="null" d="m38.996374,104.188287c-1.415891,0 -2.908419,0.277768 -3.941619,-0.764617c-0.344455,-0.417406 -0.650592,-0.868779 -0.918409,-1.320907c-0.841937,-1.181269 -1.87522,-1.320153 -3.367665,-1.215989c-1.798582,0.104163 -2.449173,-0.521569 -3.176236,-2.015327c-2.066481,-4.170292 -7.270965,-7.437083 -12.284101,-5.00435c-3.826828,1.876443 -6.16121,5.977292 -7.232728,9.660735c0,0.034721 -0.038253,0.069441 -0.038253,0.104163c0.076572,0.034721 0.153044,0.069441 0.267917,0.104163l1.798582,-3.092432c0.880172,-1.529232 1.798582,-3.093186 3.291027,-4.170292c1.492529,-1.077105 3.712037,-1.459791 5.281038,-0.486849c1.224628,0.764617 1.72211,2.189687 1.875136,3.544559c0.15311,1.355628 0.038319,2.710501 0.382691,4.031408c0.841937,3.196594 4.286074,5.421002 7.806765,6.046735c2.563964,0.451373 5.242719,0.243047 7.691892,-0.625733c2.870099,-1.042385 5.510618,-2.953548 8.342482,-3.89177c-1.760346,-0.695174 -3.673801,-0.903501 -5.778519,-0.903501l0,0.000003z" fill="#FF7000" id="svg_24"/>
   <g stroke="null" opacity="0.6" id="svg_25">
    <path stroke="null" opacity="0.6" d="m58.321857,102.797938c0.076472,0 3.444137,2.050048 3.405818,3.02299c-0.038235,0.972942 -3.061446,2.432733 -3.061446,2.432733c0,0 1.492445,-1.702838 1.148074,-2.745222c-0.344455,-1.042385 -1.492445,-2.710501 -1.492445,-2.710501z" fill="#FFD1AC" id="svg_26"/>
   </g>
   <path stroke="null" d="m70.95033,103.701438c-0.344372,1.042385 -0.994963,2.015327 -1.262865,3.127907c-0.382608,1.354873 -0.076472,2.814664 0.841937,3.92649c-0.076554,-0.312489 -0.076554,-0.660453 -0.076554,-0.972942c0,-1.737559 1.683791,-2.884106 1.569,-4.343896c-0.076554,-0.591012 -0.497482,-1.181269 -1.071518,-1.737559z" fill="#FB8532" id="svg_27"/>
   <path stroke="null" d="m73.246477,101.581948c0.880172,-0.313244 1.607236,0.520814 0.994963,2.431979l1.109754,0.034721c-0.191345,-0.520814 -0.2679,-1.077105 -0.191345,-1.63264c0.038319,-0.486849 0.497482,-0.834058 1.033283,-0.799337l0.038235,0c0.612273,0.034721 0.803618,0.486093 0.841937,1.042385c0,0.520814 -0.114791,1.042385 -0.382691,1.529232c1.339335,0.868779 2.066481,2.362536 1.875136,3.857048c-0.114791,0.520814 -0.229582,1.042385 -0.2679,1.563954c-0.038235,0.555536 0.2679,1.042385 0.765383,1.320153c0.306136,0.104163 0.650592,0.138884 0.956728,0.208325c0.306136,0.069441 0.650508,0.313244 0.612273,0.625733c-0.038319,0.243047 -0.306136,0.38193 -0.535801,0.521569c-1.875136,0.834058 -4.05641,0.834058 -5.89331,0c-1.607236,-0.729896 -2.908336,-2.120244 -3.138001,-3.718919c-0.153026,-1.077105 0.191345,-2.119489 0.956728,-2.953548c0.2679,-0.277768 1.109837,-0.660453 1.224628,-1.007663c-0.497482,-0.55629 -1.186309,-2.606338 0,-3.02299l-0.000001,-0.000001z" fill="#FF9C57" id="svg_28"/>
   <path stroke="null" d="m80.058195,112.006546c0.274717,0 0.497482,-0.202288 0.497482,-0.451373c0,-0.24984 -0.222765,-0.452128 -0.497482,-0.452128c-0.274799,0 -0.497482,0.202288 -0.497482,0.452128c0,0.249085 0.222683,0.451373 0.497482,0.451373z" fill="#2F363D" id="svg_29"/>
   <g stroke="null" opacity="0.6" id="svg_30">
    <path stroke="null" opacity="0.6" d="m32.031545,92.859435c2.028246,2.084768 3.597246,4.48278 5.510618,6.636991c1.913455,2.154965 4.553974,3.718164 7.538864,4.378617c0.229582,-0.034721 0.420927,-0.069441 0.650592,-0.104163c-2.1048,-0.173605 -4.056492,-1.285431 -5.510618,-2.710501c-1.645555,-1.598675 -2.75531,-3.544559 -3.979938,-5.421002c-1.951692,-2.988269 -4.324309,-5.977292 -7.691892,-7.610689c-2.334382,-1.111826 -4.974901,-1.563199 -7.61542,-1.285431c4.286074,0.729896 8.304247,3.23207 11.097792,6.116176l0.000001,0.000001z" fill="#FFD1AC" id="svg_31"/>
   </g>
   <g stroke="null" opacity="0.6" id="svg_32">
    <path stroke="null" opacity="0.6" d="m65.324921,101.512507c1.875136,0.972942 3.329346,2.362536 4.630446,3.89177c0.076554,-0.417406 0.229664,-0.834058 0.382691,-1.215989c-0.956728,-1.008418 -2.104718,-1.911919 -3.329346,-2.641058c-2.831864,-1.668116 -6.084656,-2.154965 -9.337446,-2.67578l1.109754,0.486093c2.181356,0.729896 4.515655,1.077105 6.543901,2.154965l0,-0.000001z" fill="#FFD1AC" id="svg_33"/>
   </g>
   <g stroke="null" opacity="0.6" id="svg_34">
    <path stroke="null" opacity="0.6" d="m72.902022,102.86738c1.109754,-0.069441 0.497482,1.702838 1.109837,1.911164c0.497482,0.173605 1.109754,-0.173605 1.683791,0.034721c0.612273,0.278522 1.071518,0.695174 1.377654,1.251464c0.420927,0.764617 0.420927,1.459037 0.344372,2.293095c-0.038235,1.077105 0.038319,2.189687 1.415973,2.502174c-0.42101,-0.312489 -0.650592,-0.764617 -0.612355,-1.25071c0.038319,-0.521569 0.15311,-1.043139 0.2679,-1.563954c0.191345,-1.494512 -0.535717,-2.988269 -1.875136,-3.857048c0.2679,-0.486849 0.382691,-1.008418 0.382691,-1.529232c-0.038319,-0.55629 -0.229582,-1.007663 -0.841937,-1.042385c-0.535717,-0.069441 -0.994963,0.277768 -1.071518,0.764617l0,0.034721c-0.076472,0.555536 0,1.111826 0.191345,1.63264l-1.109754,-0.034721c0.612273,-1.945884 -0.114791,-2.779942 -0.994963,-2.431979c-0.574036,0.208325 -0.688827,0.763861 -0.650592,1.389594c0.15311,-0.034721 0.2679,-0.069441 0.382691,-0.104163l0.000003,0z" fill="#FFD1AC" id="svg_35"/>
   </g>
   <style stroke="null" transform="translate(0,0.6060602068901062) translate(-1.2121204137802124,0) translate(1.2121204137802124,0) translate(-0.6060602068901062,-1.8181805610656738) translate(0,2.424240827560425) translate(12,6) translate(0.33920201659202576,113.24380493164062) scale(1.255104899406433) translate(-0.33920201659202576,-113.24380493164062) translate(237.188720703125,95.0070571899414) scale(1.0420525074005127,1.0436909198760986) translate(-237.188720703125,-95.0070571899414) translate(0.25935229659080505,-0.14985612034797668) scale(1.0168148279190063,1) translate(-0.25935229659080505,0.14985612034797668) " type="text/css">.st0{fill:#6E3C3F;}
	.st1{fill:#E3635C;}
	.st2{fill:#343434;}
	.st3{fill:#B1C369;}
	.st4{fill:#A490C4;}
	.st5{fill:#A2C1DB;}
	.st6{fill:#AFB67B;}
	.st7{fill:#4F4747;}
	.st8{fill:#AA6555;}
	.st9{fill:#93C6E3;}
	.st10{fill:#9C3A47;}
	.st11{fill:#52B5C3;}
	.st12{fill:#4B6C2A;}
	.st13{fill:#F4A38D;}
	.st14{fill:#6A8E2D;}
	.st15{fill:#EE7A9F;}
	.st16{fill:#F7DA6A;}
	.st17{fill:#E2991A;}
	.st18{fill:#A7B7BE;}
	.st19{fill:#E8D8CA;}
	.st20{fill:#A1A499;}
	.st21{fill:#C42725;}
	.st22{fill:#DBDC50;}
	.st23{fill:#020203;}
	.st24{fill:#92AA3C;}
	.st25{fill:#DFB87F;}
	.st26{fill:#7E4E1C;}
	.st27{fill:#BBCC53;}
	.st28{fill:#BA5C78;}
	.st29{fill:#85924F;}
	.st30{fill:#7C1142;}
	.st31{fill:#3B322E;}
	.st32{fill:#3B6C51;}
	.st33{fill:#C1292E;}
	.st34{fill:#CDCCCC;}
	.st35{fill:#886649;}
	.st36{fill:#F9B03D;}
	.st37{fill:#7D8C5B;}
	.st38{fill:#0D341E;}
	.st39{fill:#4D8F53;}
	.st40{fill:#1B1B1B;}
	.st41{fill:#F39323;}
	.st42{fill:#E7E6E6;}
	.st43{fill:#9A908B;}
	.st44{fill:#548981;}
	.st45{fill:#89525A;}
	.st46{fill:#AB9AB1;}
	.st47{fill:#5E676E;}
	.st48{fill:#DDDBCA;}
	.st49{fill:#56463E;}
	.st50{fill:#457885;}
	.st51{fill:#FFFFFF;}
	.st52{fill:#E69678;}
	.st53{fill:#A5AB9B;}
	.st54{fill:#855354;}
	.st55{fill:#DE8F6E;}
	.st56{fill:#C19D63;}
	.st57{fill:#837F62;}
	.st58{fill:#7D8769;}
	.st59{fill:#39466A;}
	.st60{fill:#4E4D4D;}
	.st61{fill:#673E44;}
	.st62{fill:#CEB283;}
	.st63{fill:#8890A4;}
	.st64{fill:#99B8B3;}
	.st65{fill:#A0747A;}
	.st66{fill:#BB839E;}
	.st67{fill:#E5DA9B;}
	.st68{fill:#BA9BC9;}
	.st69{fill:#8CACB5;}
	.st70{fill:#746458;}
	.st71{fill:#34354B;}
	.st72{fill:#6A8188;}
	.st73{fill:#B4B4B4;}
	.st74{fill:#97CB9E;}
	.st75{fill:#EE7896;}
	.st76{fill:#785F63;}
	.st77{fill:#E4A87C;}
	.st78{fill:#98D5E8;}
	.st79{fill:#CB6083;}
	.st80{fill:#9A9999;}
	.st81{fill:#C49A6C;}
	.st82{fill:#EC96AB;}
	.st83{fill:#ED87AB;}
	.st84{fill:#E2B471;}
	.st85{fill:#59B465;}
	.st86{fill:#4C996E;}
	.st87{fill:#A84F6B;}
	.st88{fill:#6BC4CD;}
	.st89{fill:#D6809C;}
	.st90{fill:#9DD0B3;}
	.st91{fill:#F3AA9A;}
	.st92{fill:#F29292;}
	.st93{fill:#BBBBBB;}
	.st94{fill:#5B5242;}
	.st95{fill:#8CCDC6;}
	.st96{fill:#EAC892;}
	.st97{fill:#F4B0CC;}
	.st98{fill:#7A6350;}
	.st99{fill:#9FC64B;}
	.st100{fill:#A68C6D;}
	.st101{fill:#F1D3D4;}
	.st102{fill:#BE8BBE;}
	.st103{fill:#F49523;}
	.st104{fill:#789835;}
	.st105{fill:#8FA369;}
	.st106{fill:#B17081;}
	.st107{fill:#E1B63D;}
	.st108{fill:#B05274;}
	.st109{fill:#CA9256;}
	.st110{fill:#A9A9AA;}
	.st111{fill:#BE202E;}
	.st112{fill-rule:evenodd;clip-rule:evenodd;fill:#A9A9AA;}
	.st113{fill:#89657B;}
	.st114{fill:#7F95B7;}
	.st115{fill:#9F9EC6;}
	.st116{fill:#7F6178;}
	.st117{fill:#6D8999;}
	.st118{fill:#A0C07E;}
	.st119{fill:#AA779F;}
	.st120{fill:#FBC063;}
	.st121{fill:#80A0C2;}
	.st122{fill:#CFAC75;}
	.st123{fill:#CD94C2;}
	.st124{fill:#AAB6DE;}
	.st125{fill:#CCAE99;}
	.st126{fill:#86B69F;}
	.st127{fill:#555D57;}
	.st128{fill:#86C1BB;}
	.st129{fill:#CA856C;}
	.st130{fill:#A4AA6D;}
	.st131{fill:#EAB978;}
	.st132{fill:#C091A7;}
	.st133{fill:#7E9DAD;}
	.st134{fill:#E5B1C8;}
	.st135{fill:#B9AEA3;}
	.st136{fill:#627F99;}
	.st137{fill:#E6A9AB;}
	.st138{fill:#913E41;}
	.st139{fill:#B46269;}
	.st140{fill:#C69C6C;}
	.st141{fill:#ED6D78;}
	.st142{fill:#C09047;}
	.st143{fill:#AE6C7B;}
	.st144{fill:#918FB2;}
	.st145{fill:#67816D;}
	.st146{fill:#B3B1A2;}
	.st147{fill:#A23A43;}
	.st148{fill:#6A907C;}
	.st149{fill:#B09294;}
	.st150{fill:#7B484D;}
	.st151{fill:#B78B5E;}
	.st152{fill:#DB7D82;}
	.st153{fill:#781611;}
	.st154{fill:#D38F8F;}
	.st155{fill:#965656;}
	.st156{fill:#9AA4B4;}
	.st157{fill:#754D24;}
	.st158{fill:#C8B7A7;}
	.st159{fill:#B4363B;}
	.st160{fill:#C77272;}
	.st161{fill:#91AF82;}
	.st162{fill:#C69462;}
	.st163{fill:#ED6C5B;}
	.st164{fill:#F3C186;}
	.st165{fill:#F3957D;}
	.st166{fill:#D1BBBC;}</style>
   <g stroke="null" id="svg_69" transform="matrix(0.35555727488928984,0,0,0.3768169003260903,-4035.0334623804724,827.8255801865776) ">
    <g stroke="null" id="svg_70"/>
    <g stroke="null" id="svg_77">
     <path stroke="null" class="st37" d="m11984.18742,-2090.536263c2,-0.1 4,-0.2 5.9,-0.3c0.4,0 0.7,-0.2 0.9,-0.6c0.4,-0.6 0.8,-1.2 1.3,-1.7c0.9,-1 1.9,-1 3,-0.1c0.3,0.2 0.5,0.5 0.7,0.8c0.4,0.7 1,0.8 1.7,0.7c0.9,-0.2 1.9,-0.3 2.8,-0.4c0.6,-0.1 1.1,-0.3 1.4,-0.9c0.1,-0.4 0.4,-0.7 0.6,-1.1c0.5,-0.8 1.3,-1 2,-0.3c0.5,0.5 0.9,1.1 1.5,1.8c2.3,-0.3 4.7,-0.5 6.7,-2.6c-0.5,-0.1 -0.8,-0.1 -1.1,-0.1c-2.8,0.1 -5.7,0.2 -8.5,0.3c-0.8,0 -1.7,-0.1 -2.3,0.2c-0.6,0.3 -0.9,1.2 -1.4,1.8c-0.9,1.1 -1.6,1.1 -2.5,0.1c-0.4,-0.4 -0.8,-0.9 -1.1,-1.4c-0.3,-0.4 -0.5,-0.6 -1,-0.6c-1.2,-0.1 -2.4,-0.2 -3.7,-0.3c-0.4,0 -0.7,0.1 -0.9,0.3c-0.5,0.5 -1,1.1 -1.6,1.5c-1.1,0.9 -1.9,0.8 -2.9,-0.2c-0.6,-0.6 -1.2,-1.3 -1.8,-2c-0.3,-0.4 -0.6,-0.6 -1.1,-0.7c-1.5,-0.3 -3,-0.6 -4.4,-0.9c-0.5,-0.1 -0.8,0 -1.1,0.4c-0.4,0.6 -0.9,1.1 -1.4,1.6c-0.3,0.3 -0.6,0.7 -1,0.9c-1.1,0.8 -2,0.6 -2.6,-0.6c-1,-2.1 -1.6,-4.2 -1.8,-6.5c-0.1,-1.5 0.1,-2.9 0.8,-4.3c2.5,-5.2 6.4,-8.9 11.9,-10.7c4.2,-1.4 8.4,-2.3 12.7,-3.1c4.2,-0.8 8.4,-1.8 12.4,-3.3c2.7,-1 5.5,-1.8 8.3,-2c1,-0.1 2,-0.1 2.9,-0.1c3.8,0 7.6,0.2 11.4,0.2c2.4,0 4.9,0 7.3,-0.3c4.5,-0.4 8.8,-0.1 13,1.5c7.2,2.7 11.3,8 12.5,15.5c1.2,7.5 0,14.8 -3,21.7c-0.9,2 -1.8,3.9 -2.7,5.9c-1.2,2.7 -1.9,5.6 -1.8,8.6c0,3.9 -0.4,7.7 -1.1,11.5c-0.7,4.1 -0.5,8.1 0.9,12c1.2,3.3 2.3,6.6 3.3,10c1.3,4.5 1.4,9.1 -0.3,13.6c-0.4,1 -0.9,2 -1.4,3c-0.2,0.3 -0.3,0.7 -0.6,1.1c0.4,0.1 0.8,0.1 1.1,0.2c3.5,0.3 6.9,0 10.1,-1.2c1,-0.4 2,-0.9 3.1,-1.4c1.8,-0.8 3.6,-1.4 5.6,-1.3c3.4,0.2 6.6,1.3 9.4,3.3c2.4,1.7 4.1,4.2 5,7c1.1,3.5 2.8,6.8 4.8,9.9c1.8,2.9 2.5,6 2,9.3c-0.1,0.5 -0.2,1 -0.4,1.5c-0.2,0.6 -0.6,1 -1.3,1.1c-0.5,0 -1,-0.4 -1.2,-1.1c-0.3,-0.9 -0.5,-1.7 -0.7,-2.6c-0.6,-2.4 -1.6,-4.7 -3,-6.8c-0.2,-0.3 -0.4,-0.6 -0.7,-0.9c-0.1,-0.1 -0.2,-0.1 -0.4,-0.2c0.2,0.6 0.4,1.1 0.6,1.6c0.7,1.9 1.3,3.8 1.5,5.8c0.2,3 -0.4,5.8 -1.8,8.4c-0.2,0.3 -0.4,0.7 -0.7,0.9c-0.8,0.7 -1.8,0.4 -2,-0.7c-0.1,-0.4 -0.1,-0.8 -0.1,-1.3c0,-2.2 -0.1,-4.5 -0.6,-6.7c-0.3,-1.1 -0.6,-2.3 -1.2,-3.4c0,0.2 -0.1,0.4 -0.1,0.6c-0.2,2.8 -0.7,5.6 -1.8,8.3c-0.3,0.8 -0.8,1.6 -1.3,2.4c-0.2,0.3 -0.5,0.6 -0.8,0.8c-0.8,0.6 -1.7,0.2 -1.9,-0.8c-0.1,-0.5 0,-1 0.1,-1.5c0.5,-2.8 0.8,-5.6 0.9,-8.4c0,-1.4 0,-2.8 -0.2,-4.2c-0.2,-1.5 -0.8,-2.8 -1.8,-3.9c-1.1,-1.2 -2.2,-2.4 -3.2,-3.6c-0.6,-0.7 -1.3,-0.9 -2.1,-0.7c-1.5,0.3 -3,0.5 -4.5,0.7c-1.8,0.2 -3.6,0.2 -5.4,0.4c-1.9,0.2 -3.9,0.5 -5.8,0.9c-3.4,0.7 -6.7,0.4 -10.1,-0.3c-2.3,-0.5 -1.8,-0.6 -2.7,1.3c-1.1,2.3 -2.5,4.4 -4.1,6.3c-0.4,0.5 -0.7,1 -1.2,1.6c0.5,0.2 1,0.4 1.4,0.6c1.7,0.8 3.5,1.5 5,2.6c3.2,2.1 6.7,3 10.4,2.9c1.8,0 3.6,-0.1 5.5,0c1.7,0.1 3.4,0.3 5.1,0.6c2.4,0.4 4.3,1.7 5.9,3.6c0.5,0.6 1,1.3 1.5,1.9c0.8,1.1 1.6,2.1 2.4,3.1c1.8,2.1 3,4.4 3.4,7.1c0.5,3.7 1.9,7.2 3.3,10.7c0.6,1.4 1.1,2.9 1.6,4.3c0.6,2.2 0.3,4.4 -0.2,6.7c-0.6,3 -1.7,5.7 -3.4,8.2c-0.4,0.5 -0.8,1 -1.3,1.5c-0.4,0.4 -0.9,0.6 -1.4,0.3c-0.5,-0.3 -0.7,-0.8 -0.5,-1.5c0.3,-1.1 0.6,-2.1 0.9,-3.1c0.8,-2.5 1,-5 0.5,-7.6c-0.3,-1.9 -1.1,-3.8 -2,-5.5c0,0.2 -0.1,0.4 -0.1,0.6c-0.2,3.1 -0.4,6.1 -0.6,9.2c-0.4,4.4 -2.4,8.1 -5.5,11.3c-0.2,0.2 -0.5,0.5 -0.8,0.6c-0.9,0.4 -1.7,0 -1.8,-1c0,-0.4 0,-0.8 0.1,-1.2c0.4,-1.6 0.7,-3.1 1.2,-4.7c1.1,-3.5 1.1,-7.1 0.3,-10.7c-0.1,-0.7 -0.3,-1.4 -0.5,-2.3c-0.6,0.8 -0.7,1.6 -0.8,2.4c-0.2,1.5 -0.3,3 -0.5,4.5c-0.2,1.8 -0.9,3.5 -1.9,4.9c-1.1,1.6 -2.4,3.2 -3.7,4.7c-0.3,0.4 -0.8,0.8 -1.3,1c-1,0.5 -2,-0.2 -1.9,-1.3c0,-0.4 0.1,-0.8 0.3,-1.1c0.4,-1.1 0.8,-2.2 1.2,-3.4c0.7,-1.9 1.1,-3.8 0.9,-5.8c-0.2,-2.1 0,-4.2 0.3,-6.4c0.3,-2.4 0.5,-4.9 0.7,-7.3c0.1,-1.1 0.2,-2.3 0.3,-3.5c0.1,-1.4 0,-1.6 -1.3,-2c-2.8,-0.9 -5.4,-2.2 -7.8,-4c-1.2,-0.9 -2.7,-1.2 -4.2,-1.2c-0.9,0 -1.7,0 -2.6,0c-1.8,0 -3.6,-0.4 -5.3,-1c-2.7,-1 -5.2,-2.5 -7.5,-4.2c-2.8,-2.2 -5.6,-4.5 -8.4,-6.8c-0.8,-0.7 -1.6,-1.4 -2.5,-2.1c-0.3,-0.3 -0.8,-0.5 -1.2,-0.7c-0.2,0.5 0.1,0.8 0.2,1.1c1.2,2.4 2.3,4.9 3.3,7.4c1.4,4 1.8,8 1.3,12.2c-0.2,1.6 -0.3,3.2 -0.5,4.8c-0.2,2.4 0.1,4.7 0.7,7.1c0.4,1.7 0.8,3.5 0.7,5.3c-0.1,2 -0.8,3.8 -2.4,5.1c-1.1,0.9 -2.2,1.7 -3.4,2.5c-1.6,1.1 -3.3,2.2 -5,3.3c-0.8,0.6 -1.6,1.3 -2.3,2.1c-0.9,1 -1.1,2.1 -0.5,3.4c0.3,0.5 0.5,1 0.8,1.5c0.9,1.4 1.7,2.8 2.6,4.2c0.2,0.4 0.5,0.8 0.8,1.1c0.7,0.8 1.4,0.9 2.3,0.4c1.7,-0.9 3.4,-1.9 5.2,-2.4c3.3,-1.1 6.6,-0.9 9.6,0.8c1.1,0.6 2.1,1.2 3.2,1.8c0.4,0.3 0.8,0.6 1.1,1c0.4,0.4 0.7,1 0.5,1.6c-0.2,0.6 -0.8,0.9 -1.4,1c-0.5,0 -1.1,0 -1.6,-0.1c-2.8,-0.5 -5.4,-0.2 -7.8,1.2c-2,1.2 -3.2,2.9 -3.2,5.3c0,1.2 0.1,1.4 1.3,1.7c0.8,0.2 1.6,0.4 2.4,0.6c5.3,1.4 9,4.6 11.3,9.5c0.2,0.4 0.3,0.8 0.4,1.2c0.3,1.4 -0.7,2.4 -2.1,2c-0.7,-0.2 -1.3,-0.5 -2,-0.7c-1.4,-0.6 -2.8,-1.2 -4.2,-1.7c-1.4,-0.5 -2.8,-0.7 -4.6,-0.6c0.4,0.3 0.6,0.5 0.9,0.7c3.1,1.9 5.2,4.6 6.7,7.9c0.3,0.7 0.6,1.5 0.7,2.3c0.2,0.7 0,1.3 -0.6,1.8c-0.6,0.4 -1.2,0.2 -1.8,-0.1c-0.2,-0.1 -0.4,-0.2 -0.6,-0.4c-2.6,-2.1 -5.7,-3.1 -8.9,-3.7c-3.3,-0.6 -6.5,-1.2 -9.8,-1.9c-2.4,-0.5 -4.7,-1.5 -6.8,-2.8c-0.8,-0.5 -1.7,-1.1 -2.5,-1.5c-2.4,-1.2 -3.4,-3.2 -3.8,-5.7c-0.1,-0.9 -0.2,-1.8 -0.2,-2.7c0,-2.9 0.1,-5.7 -0.1,-8.6c-0.2,-5.1 -1.3,-10 -2.6,-14.9c-0.6,-2.2 -1.1,-4.5 -1.5,-6.8c-0.6,-3.7 0.1,-7.3 2.4,-10.3c1,-1.3 2.3,-2.4 3.4,-3.5c0.9,-0.8 1.9,-1.6 2.7,-2.4c1.8,-1.8 1.8,-2.7 0.2,-4.6c-0.9,-1.1 -1.9,-2 -2.9,-3c-2,-2 -4.2,-3.9 -6.1,-6c-2.9,-3.2 -4.8,-6.9 -5.5,-11.3c-0.2,-1.1 -0.2,-1.2 -1.3,-1.1c-0.8,0 -1.5,0.1 -2.3,0.1c-1.9,0.1 -2.5,0.7 -2.6,2.7c-0.1,2 -0.2,4 -0.2,6c0,3.1 0,6.3 0,9.4c0,2.9 -0.3,5.8 -1,8.6c-0.7,3.1 -1.9,5.9 -3.6,8.6c-1.1,1.7 -2.3,3.3 -3.5,4.9c-2.1,2.9 -4.4,5.7 -6.5,8.7c-1,1.3 -1.8,2.7 -2.6,4.2c-0.6,1.2 -1,2.5 -1.4,3.7c-0.4,1.2 -0.1,2.3 0.4,3.4c0.3,0.6 0.6,1.1 0.9,1.6c1.4,1.9 2.9,3.8 4.4,5.6c1,1.2 2.2,2 3.6,2.7c1.2,0.6 2.3,0.7 3.5,0.2c0.7,-0.3 1.4,-0.7 2,-1.1c0.8,-0.5 1.6,-1 2.5,-1.4c1.7,-0.9 3.5,-1.1 5.4,-0.7c3,0.6 5.5,2.1 7.3,4.7c0.6,0.8 1.2,1.7 1.6,2.6c0.4,0.7 0.6,1.5 0.7,2.3c0.2,1.1 -0.6,1.7 -1.6,1.4c-0.4,-0.1 -0.7,-0.4 -1.1,-0.6c-0.7,-0.4 -1.4,-0.9 -2.2,-1.2c-1.5,-0.6 -3,-0.3 -4.2,0.9c-1.3,1.3 -1.3,2.9 0.1,4.1c0.7,0.6 1.5,1.1 2.4,1.6c1.5,0.8 3,1.4 4.6,2.1c3.4,1.6 6.1,3.9 7.8,7.4c0.1,0.3 0.3,0.6 0.3,0.9c0.2,0.9 -0.5,1.6 -1.4,1.4c-0.4,-0.1 -0.8,-0.3 -1.2,-0.6c-0.9,-0.5 -1.8,-1.1 -2.8,-1.6c-1.9,-0.9 -4,-1.4 -6.1,-1c-0.5,0.1 -1,0.3 -1.8,0.5c0.6,0.3 1,0.6 1.4,0.8c2.3,1.1 4.2,2.7 5.6,4.8c1.4,1.9 2.6,3.9 3.8,5.9c0.5,0.8 0.8,1.6 1.1,2.5c0.2,0.7 0.2,1.4 -0.3,2c-0.6,0.6 -1.3,0.5 -2.1,0.3c-0.4,-0.1 -0.8,-0.4 -1.2,-0.6c-0.6,-0.4 -1.2,-0.8 -1.7,-1.2c-3.6,-2.7 -7.7,-4 -12,-4.9c-4.8,-0.9 -9.6,-1 -14.4,-1.2c-2.9,-0.1 -5.8,-0.3 -8.7,-0.6c-2.1,-0.3 -4,-1.2 -5.8,-2.2c-1.8,-1.1 -2.9,-2.7 -3.8,-4.5c-1.1,-2.2 -1.5,-4.7 -1.6,-7.1c-0.4,-7.3 -1.2,-14.5 -2.3,-21.7c-0.7,-4.7 -1.3,-9.4 -1.8,-14.1c-0.5,-4.7 -0.2,-9.3 1.5,-13.7c0.9,-2.4 2.2,-4.6 4,-6.5c1.2,-1.4 2.5,-2.7 3.7,-4c0.7,-0.7 1.3,-1.5 1.9,-2.2c1.8,-2.4 2.2,-5 1.2,-7.8c-0.8,-2.4 -2,-4.6 -3.5,-6.7c-3.1,-4.3 -6.9,-7.7 -11.6,-10.1c-4.8,-2.5 -9.9,-3.2 -15.1,-1.4c-2.6,0.9 -5.2,1.9 -7.8,2.9c-4.2,1.6 -8.4,3.1 -12.8,4.1c-6.6,1.5 -13.1,0.8 -19.4,-1.4c-4.3,-1.5 -8.6,-3.2 -13,-4.8c-4.8,-1.7 -9.7,-3.4 -14.7,-4.6c-4.9,-1.1 -9.9,-1.9 -14.9,-2.5c-4.3,-0.5 -8.6,-0.7 -13,-0.6c-6.2,0.2 -12.3,1.5 -18.1,3.7c-3,1.1 -5.9,2.5 -8.9,3.7c-2,0.9 -3.7,2.1 -5.5,3.3c-0.8,0.6 -1.6,1.1 -2.4,1.6c-0.4,0.3 -0.9,0.4 -1.4,0c-0.4,-0.3 -0.4,-0.8 -0.2,-1.3c0.3,-0.7 0.6,-1.4 0.9,-2.1c2.3,-5.3 5.9,-9.4 10.5,-12.8c5.4,-4 11.5,-6.7 17.9,-8.4c7.1,-1.9 14.2,-3.4 21.5,-4c4.5,-0.4 8.9,-0.7 13.4,-1.1c4.4,-0.3 8.8,-0.5 13.2,-0.8c6.5,-0.5 12.9,-1.2 19.3,-2.7c5.8,-1.4 11.2,-3.7 16.3,-6.8c3.5,-2.2 6.9,-4.5 10.5,-6.6c8.6,-5.1 17.9,-8.4 27.7,-10.1c5.3,-0.9 10.6,-1.7 15.7,-3.2c4.1,-1.2 8.1,-2.5 12.2,-3.8c5.6,-1.8 11.3,-2.8 17.2,-2.7c2.3,0 4.6,0.1 6.8,-0.2c4.1,-0.5 7.9,-1.8 11.1,-4.6c0.6,-0.5 1.1,-1.2 1.5,-1.9c1.3,-2.4 2.5,-4.8 3.3,-7.4c0.6,-1.8 0.6,-3.5 0.3,-5.3c-0.3,-1.5 -1.1,-2.5 -2.4,-3.2c-2.2,-1.1 -4.5,-1.6 -6.9,-1.6c-3.6,0 -7.3,0.2 -10.9,0.3c-5,0.2 -10.1,0.4 -15.1,-0.1c-3.3,-0.4 -6.4,-1.2 -9,-3.3c-1.5,-1.2 -2.7,-2.7 -3.4,-4.5c-0.7,-1.9 -0.2,-4.1 1.3,-5.4c1.5,-1.2 3,-2.4 4.5,-3.7c0.3,-0.2 0.6,-0.4 0.8,-0.6c1,-0.7 2,-0.7 2.9,0.2c0.7,0.7 1.3,1.5 1.8,2.3c1,-0.2 1.3,0.4 1.7,0.9z" id="svg_78"/>
     <g stroke="null" id="svg_79">
      <g stroke="null" id="svg_80">
       <path stroke="null" class="st36" d="m11917.88742,-1916.836263c1,0.8 2.1,1.1 3.3,1.3c2.6,0.3 5.1,1 7.7,1.7c0.4,0.1 0.9,0.3 1.3,0.5c1,0.6 1.1,1.6 0.2,2.3c-0.8,0.7 -1.8,1 -2.9,1.1c-1.2,0.1 -2.4,0.2 -3.7,0.2c-1.8,0 -3.6,0 -5.3,0c-0.6,0 -1.3,0.2 -1.8,0.5c-0.8,0.4 -0.8,1.2 -0.1,1.8c0.3,0.2 0.7,0.4 1,0.5c1.2,0.4 2.5,0.8 3.7,1c2.5,0.5 4.6,1.8 6.6,3.3c0.7,0.5 1.2,1.2 0.9,2.2c-0.3,0.9 -1.1,1.2 -2,1.3c-1.4,0.2 -2.8,-0.1 -4.2,-0.3c-3.9,-0.7 -7.6,-1.9 -11.1,-3.9c-2.7,-1.6 -5.5,-2.8 -8.4,-4c-1.4,-0.6 -2.8,-1.3 -4.1,-2c-0.9,-0.5 -1.7,-1.2 -2.2,-2.2c-0.9,-1.4 -0.8,-2.8 0.1,-4.2c0.8,-1.1 1.8,-1.9 3.1,-2.5c1.9,-0.9 3.9,-1.3 6,-1.5c1,-0.1 1.9,-0.2 2.9,-0.3c2.5,-0.3 4.7,-1.2 6.8,-2.5c1.7,-1 3.5,-1.8 5.4,-2.5c2.7,-1 5.3,-0.6 7.9,0.2c0.2,0.1 0.4,0.2 0.6,0.3c1.4,0.8 1.5,2.2 0.3,3.2c-0.6,0.5 -1.3,0.8 -2,1c-2.1,0.5 -4.1,1 -6.2,1.5c-0.8,0.2 -1.7,0.5 -2.5,0.8c-0.6,0.2 -1.1,0.5 -1.3,1.2z" id="svg_81"/>
       <path stroke="null" class="st36" d="m11934.28742,-1926.136263c1.8,0.3 3.7,0.6 5.4,1c0.9,0.2 1.8,0.8 2.7,1.2c0.4,0.2 0.7,0.6 0.6,1.1c-0.1,0.5 -0.4,0.8 -0.9,0.9c-0.5,0.2 -1.1,0.2 -1.6,0.3c-1.8,0.4 -3.7,0.8 -5.5,1.3c-1.4,0.3 -2,0 -2.3,-1.3c-0.2,-0.8 -0.3,-1.6 -0.4,-2.4c-0.2,-1.5 0.4,-2.1 2,-2.1z" id="svg_82"/>
       <path stroke="null" class="st36" d="m11936.28742,-1908.836263c-1,0 -2.1,0 -3.1,0c-0.9,0 -1.4,-0.5 -1.5,-1.4c-0.1,-0.9 -0.1,-1.7 -0.1,-2.6c0.1,-1.1 0.7,-1.6 1.8,-1.4c2.7,0.5 5.2,1.4 7.4,3.2c0.4,0.3 0.8,0.7 0.6,1.3c-0.2,0.6 -0.6,0.8 -1.2,0.9c-1.3,0.1 -2.6,0.2 -3.9,0.2c0,0 0,-0.1 0,-0.2z" id="svg_83"/>
       <path stroke="null" class="st36" d="m11929.38742,-1900.136263c0.1,-0.6 0.1,-1.2 0.3,-1.8c0.2,-0.9 0.8,-1.2 1.7,-1.1c0.3,0 0.5,0.1 0.8,0.2c2.5,1 4.7,2.4 6.4,4.4c0.1,0.1 0.1,0.2 0.2,0.2c0.4,0.4 0.6,0.9 0.3,1.4c-0.2,0.5 -0.8,0.6 -1.5,0.5c-2.1,-0.5 -4.2,-1 -6.3,-1.4c-1.6,-0.2 -1.9,-0.7 -1.9,-2.4z" id="svg_84"/>
      </g>
      <g stroke="null" id="svg_85">
       <path stroke="null" class="st36" d="m11855.88742,-1923.236263c1,0.8 2.1,1.1 3.3,1.3c2.6,0.3 5.1,1 7.7,1.7c0.4,0.1 0.9,0.3 1.3,0.5c1,0.6 1.1,1.6 0.2,2.3c-0.8,0.7 -1.8,1 -2.9,1.1c-1.2,0.1 -2.4,0.2 -3.7,0.2c-1.8,0 -3.6,0 -5.3,0c-0.6,0 -1.3,0.2 -1.8,0.5c-0.8,0.4 -0.8,1.2 -0.1,1.8c0.3,0.2 0.7,0.4 1,0.5c1.2,0.4 2.5,0.8 3.7,1c2.5,0.5 4.6,1.8 6.6,3.3c0.7,0.5 1.2,1.2 0.9,2.2c-0.3,0.9 -1.1,1.2 -2,1.3c-1.4,0.2 -2.8,-0.1 -4.2,-0.3c-3.9,-0.7 -7.6,-1.9 -11.1,-3.9c-2.7,-1.6 -5.5,-2.8 -8.4,-4c-1.4,-0.6 -2.8,-1.3 -4.1,-2c-0.9,-0.5 -1.7,-1.2 -2.2,-2.2c-0.9,-1.4 -0.8,-2.8 0.1,-4.2c0.8,-1.1 1.8,-1.9 3.1,-2.5c1.9,-0.9 3.9,-1.3 6,-1.5c1,-0.1 1.9,-0.2 2.9,-0.3c2.5,-0.3 4.7,-1.2 6.8,-2.5c1.7,-1 3.5,-1.8 5.4,-2.5c2.7,-1 5.3,-0.6 7.9,0.2c0.2,0.1 0.4,0.2 0.6,0.3c1.4,0.8 1.5,2.2 0.3,3.2c-0.6,0.5 -1.3,0.8 -2,1c-2.1,0.5 -4.1,1 -6.2,1.5c-0.8,0.2 -1.7,0.5 -2.5,0.8c-0.6,0.2 -1.1,0.6 -1.3,1.2z" id="svg_86"/>
       <path stroke="null" class="st36" d="m11872.28742,-1932.536263c1.8,0.3 3.7,0.6 5.4,1c0.9,0.2 1.8,0.8 2.7,1.2c0.4,0.2 0.7,0.6 0.6,1.1c-0.1,0.5 -0.4,0.8 -0.9,0.9c-0.5,0.2 -1.1,0.2 -1.6,0.3c-1.8,0.4 -3.7,0.8 -5.5,1.3c-1.4,0.3 -2,0 -2.3,-1.3c-0.2,-0.8 -0.3,-1.6 -0.4,-2.4c-0.1,-1.5 0.4,-2 2,-2.1z" id="svg_87"/>
       <path stroke="null" class="st36" d="m11874.28742,-1915.136263c-1,0 -2.1,0 -3.1,0c-0.9,0 -1.4,-0.5 -1.5,-1.4c-0.1,-0.9 -0.1,-1.7 -0.1,-2.6c0.1,-1.1 0.7,-1.6 1.8,-1.4c2.7,0.5 5.2,1.4 7.4,3.2c0.4,0.3 0.8,0.7 0.6,1.3c-0.2,0.6 -0.6,0.8 -1.2,0.9c-1.3,0.1 -2.6,0.2 -3.9,0.2c0,-0.1 0,-0.2 0,-0.2z" id="svg_88"/>
       <path stroke="null" class="st36" d="m11867.48742,-1906.436263c0.1,-0.6 0.1,-1.2 0.3,-1.8c0.2,-0.9 0.8,-1.2 1.7,-1.1c0.3,0 0.5,0.1 0.8,0.2c2.5,1 4.7,2.4 6.4,4.4c0.1,0.1 0.1,0.2 0.2,0.2c0.4,0.4 0.6,0.9 0.3,1.4c-0.2,0.5 -0.8,0.6 -1.5,0.5c-2.1,-0.5 -4.2,-1 -6.3,-1.4c-1.6,-0.3 -2,-0.7 -1.9,-2.4z" id="svg_89"/>
      </g>
      <g stroke="null" id="svg_90">
       <path stroke="null" class="st36" d="m11802.08742,-1902.936263c1,0.8 2.1,1.1 3.3,1.3c2.6,0.3 5.1,1 7.7,1.7c0.4,0.1 0.9,0.3 1.3,0.5c1,0.6 1.1,1.6 0.2,2.3c-0.8,0.7 -1.8,1 -2.9,1.1c-1.2,0.1 -2.4,0.2 -3.7,0.2c-1.8,0 -3.6,0 -5.3,0c-0.6,0 -1.3,0.2 -1.8,0.5c-0.8,0.4 -0.8,1.2 -0.1,1.8c0.3,0.2 0.7,0.4 1,0.5c1.2,0.4 2.5,0.8 3.7,1c2.5,0.5 4.6,1.8 6.6,3.3c0.7,0.5 1.2,1.2 0.9,2.2c-0.3,0.9 -1.1,1.2 -2,1.3c-1.4,0.2 -2.8,-0.1 -4.2,-0.3c-3.9,-0.7 -7.6,-1.9 -11.1,-3.9c-2.7,-1.6 -5.5,-2.8 -8.4,-4c-1.4,-0.6 -2.8,-1.3 -4.1,-2c-0.9,-0.5 -1.7,-1.2 -2.2,-2.2c-0.9,-1.4 -0.8,-2.8 0.1,-4.2c0.8,-1.1 1.8,-1.9 3.1,-2.5c1.9,-0.9 3.9,-1.3 6,-1.5c1,-0.1 1.9,-0.2 2.9,-0.3c2.5,-0.3 4.7,-1.2 6.8,-2.5c1.7,-1 3.5,-1.8 5.4,-2.5c2.7,-1 5.3,-0.6 7.9,0.2c0.2,0.1 0.4,0.2 0.6,0.3c1.4,0.8 1.5,2.2 0.3,3.2c-0.6,0.5 -1.3,0.8 -2,1c-2.1,0.5 -4.1,1 -6.2,1.5c-0.8,0.2 -1.7,0.5 -2.5,0.8c-0.6,0.2 -1.1,0.6 -1.3,1.2z" id="svg_91"/>
       <path stroke="null" class="st36" d="m11818.58742,-1912.236263c1.8,0.3 3.7,0.6 5.4,1c0.9,0.2 1.8,0.8 2.7,1.2c0.4,0.2 0.7,0.6 0.6,1.1c-0.1,0.5 -0.4,0.8 -0.9,0.9c-0.5,0.2 -1.1,0.2 -1.6,0.3c-1.8,0.4 -3.7,0.8 -5.5,1.3c-1.4,0.3 -2,0 -2.3,-1.3c-0.2,-0.8 -0.3,-1.6 -0.4,-2.4c-0.2,-1.5 0.4,-2 2,-2.1z" id="svg_92"/>
       <path stroke="null" class="st36" d="m11820.58742,-1894.836263c-1,0 -2.1,0 -3.1,0c-0.9,0 -1.4,-0.5 -1.5,-1.4c-0.1,-0.9 -0.1,-1.7 -0.1,-2.6c0.1,-1.1 0.7,-1.6 1.8,-1.4c2.7,0.5 5.2,1.4 7.4,3.2c0.4,0.3 0.8,0.7 0.6,1.3c-0.2,0.6 -0.6,0.8 -1.2,0.9c-1.3,0.1 -2.6,0.2 -3.9,0.2c0,-0.1 0,-0.2 0,-0.2z" id="svg_93"/>
       <path stroke="null" class="st36" d="m11813.68742,-1886.136263c0.1,-0.6 0.1,-1.2 0.3,-1.8c0.2,-0.9 0.8,-1.2 1.7,-1.1c0.3,0 0.5,0.1 0.8,0.2c2.5,1 4.7,2.4 6.4,4.4c0.1,0.1 0.1,0.2 0.2,0.2c0.4,0.4 0.6,0.9 0.3,1.4c-0.2,0.5 -0.8,0.6 -1.5,0.5c-2.1,-0.5 -4.2,-1 -6.3,-1.4c-1.6,-0.3 -1.9,-0.7 -1.9,-2.4z" id="svg_94"/>
      </g>
     </g>
    </g>
   </g>
   <ellipse stroke="null" fill="none" stroke-width="null" cx="226.902023" cy="49.966407" id="svg_96" rx="3.058623" ry="1.339011"/>
  </g>
  <defs>
   <style>.cls-1{fill:#282828;}.cls-2{fill:#a8363f;}</style>
  </defs>
  <g stroke="null" id="svg_64">
   <path stroke="null" class="cls-1" d="m113.152408,62.033224c0.408357,0.877473 0.974953,1.372519 1.752534,1.360789c2.264682,-0.037538 2.955488,-9.07036 0.89158,-11.859976c-2.446742,-3.305777 -3.95256,3.953325 -3.084801,8.826356a3.889605,5.363385 0 0 0 0.440686,1.672831zm1.686176,-10.133183c0.549581,0.680394 0.442387,9.016397 0.017015,9.966602c-0.804804,1.804217 -0.629552,-10.724422 -0.017015,-9.966602z" id="svg_40"/>
   <path stroke="null" class="cls-1" d="m117.567773,63.192239c0,0.131387 0.039135,0.199425 0.13782,0.199425c0.141224,0 0.284149,0 0.425373,0c0.263731,0 0.265432,0 0.267133,-0.361313c0.011911,-2.296917 0,-4.591489 0,-6.888406a0.707819,0.976014 0 0 1 0.022119,-0.349583c0.030627,0.12904 0.049343,0.204119 0.066358,0.279196c0.136119,0.638163 0.28585,1.271633 0.445791,1.902758c0.340298,1.360789 0.757162,2.684039 1.124684,4.033096a7.93915,10.94731 0 0 0 0.316478,1.060477c0.03403,0.093848 0.069761,0.15954 0.156537,0.161887c0.29606,0.011731 0.592118,0.0305 0.888178,0.051615c0.073164,0 0.110596,-0.037538 0.117402,-0.133733a0.889879,1.227056 0 0 0 0,-0.15954c0.015313,-2.233569 0.025523,-4.457756 0,-6.70071c-0.015313,-1.407712 -0.018717,-2.815425 0.03403,-4.223137c0.01021,-0.321427 0.025523,-0.64051 0.027224,-0.961937c0,-0.281542 -0.025523,-0.316735 -0.222895,-0.290927c-0.170149,0.021115 -0.340298,0.018769 -0.50194,0.025808s-0.183761,0.016423 -0.197373,0.253388c-0.056149,1.039362 -0.073164,2.081067 -0.057851,3.122775s0.032329,2.111569 0.047642,3.174391a0.479821,0.661625 0 0 1 -0.023821,0.314388c-0.090179,-0.349583 -0.170149,-0.647548 -0.245014,-0.938475c-0.445791,-1.733833 -0.973252,-3.425433 -1.447968,-5.147535a3.624172,4.997379 0 0 0 -0.236507,-0.703856a0.23991,0.330812 0 0 0 -0.216089,-0.185348c-0.265432,0 -0.529163,-0.028154 -0.792895,-0.032846c-0.13782,0 -0.156537,0.025808 -0.159941,0.213504c-0.011911,0.499738 -0.025523,0.997129 -0.028925,1.494521c-0.020418,3.284662 0.03403,6.569323 0.047642,9.853987c-0.003404,0.314388 0.005105,0.624087 0.006806,0.936129l0.000002,0z" id="svg_41"/>
   <path stroke="null" class="cls-1" d="m122.124362,57.047576c0.039135,1.00886 0.017015,2.050567 0.052746,3.089929c0.028925,0.844627 0.015313,1.6916 0.022119,2.536229c0,0.09854 0,0.197079 0.011911,0.293273a0.253522,0.349583 0 0 0 0.229701,0.342544a2.428025,3.34801 0 0 0 0.382835,0.065692c0.393044,0.014077 0.78779,0.021115 1.180834,0.016423c0.302866,0 0.607431,0 0.908596,-0.053962c0.14803,-0.023462 0.161642,-0.039885 0.170149,-0.234619c0.013612,-0.150156 0.025523,-0.302658 0.028925,-0.452813c0,-0.213504 -0.015313,-0.234619 -0.170149,-0.234619c-0.340298,0 -0.680596,0 -1.020893,0c-0.188866,0 -0.190567,0 -0.200776,-0.272158c-0.028925,-0.703856 -0.062955,-1.38425 -0.07997,-2.078721q-0.059552,-2.374342 -0.045941,-4.751029c0,-0.063346 0,-0.126694 0,-0.187694a0.083373,0.114963 0 0 1 0.095283,-0.12904c0.039135,0 0.076567,0 0.115701,0c0.302866,-0.032846 0.60573,-0.058654 0.908596,-0.063346c0.149731,0 0.170149,-0.046923 0.19397,-0.248696c0.01021,-0.133733 0.020418,-0.267465 0.028925,-0.398852c0.022119,-0.330812 0,-0.356621 -0.228,-0.370698a7.632882,10.524997 0 0 0 -0.966446,0c-0.078269,0 -0.124208,0 -0.122507,-0.133733q0.011911,-0.89859 0.017015,-1.79014c0,-0.131387 0.052746,-0.15954 0.136119,-0.161887c0.231403,0 0.464506,-0.021115 0.695909,-0.032846c0.103791,0 0.20588,0 0.309672,-0.021115a0.142925,0.197079 0 0 0 0.156537,-0.21585c0,-0.168925 0.015313,-0.33785 0.015313,-0.506777c0,-0.21585 -0.037433,-0.265119 -0.192268,-0.279196c-0.064657,0 -0.129313,0 -0.19397,0c-0.779283,0.037538 -1.560265,0.056308 -2.339548,0.107925c-0.100388,0 -0.119105,0.063346 -0.131014,0.168925a2.60498,3.592012 0 0 0 -0.022119,0.703856c0.015313,1.736179 0.040836,3.498166 0.052746,5.292998l-0.000001,-0.000002z" id="svg_42"/>
   <path stroke="null" class="cls-1" d="m128.486231,63.016276c0.013612,0.295619 0.011911,0.293273 0.216089,0.323773a9.126789,12.584949 0 0 0 1.180834,0.046923a2.245966,3.096967 0 0 0 0.77758,-0.185348a2.484174,3.425433 0 0 0 1.580684,-2.545614a5.861631,8.082616 0 0 0 0.119105,-2.759116a3.25495,4.488256 0 0 0 -0.527462,-2.041183a3.110322,4.288831 0 0 0 -0.649969,-0.924398c0.040836,-0.093848 0.098687,-0.119656 0.144626,-0.168925a2.307219,3.181429 0 0 0 0.850745,-1.489829a1.162117,1.602446 0 0 0 -0.488328,-1.952027a2.104743,2.902233 0 0 0 -1.112774,-0.469237a20.218799,27.879743 0 0 0 -2.031579,0.053962c-0.154836,0.018769 -0.159941,0.028154 -0.170149,0.234619c-0.008507,0.525546 -0.008507,1.051092 -0.025523,1.576639c-0.045941,1.297442 -0.06806,2.594883 -0.035731,3.894671c0.056149,2.137377 0.074866,4.272408 0.17185,6.405091l0.000001,-0.000002zm1.647041,-11.355547c0.093582,-0.011731 0.153135,0.077425 0.204179,0.17831a0.702715,0.968975 0 0 1 0.112299,0.431698a3.663307,5.051341 0 0 1 0.047642,1.065169a0.74355,1.025285 0 0 1 -0.324985,0.797704l-0.044239,-0.021115l0.005105,-2.451765zm-0.037433,9.551327c0.045941,-1.708025 0.06806,-3.416048 0.049343,-5.124073c0,-0.044577 0,-0.089156 0,-0.133733c0,-0.274504 0.074866,-0.340198 0.256925,-0.21585a0.418567,0.577162 0 0 1 0.195672,0.349583a2.140474,2.951504 0 0 1 0.132717,0.912667c0.045941,1.144939 0.086776,2.292225 0.078269,3.43951a3.573128,4.926993 0 0 1 -0.114,1.269287a0.792895,1.093323 0 0 1 -0.598924,0.788319c-0.001701,-0.452813 -0.011911,-0.870435 0,-1.28571l-0.000001,0z" id="svg_43"/>
   <path stroke="null" class="cls-1" d="m133.570281,62.033224c0.408357,0.877473 0.974953,1.372519 1.752534,1.360789c2.262981,-0.037538 2.955488,-9.07036 0.89158,-11.859976c-2.446742,-3.305777 -3.95256,3.953325 -3.084801,8.826356a3.889605,5.363385 0 0 0 0.440686,1.672831zm1.686176,-10.133183c0.549581,0.680394 0.442387,9.016397 0.017015,9.966602c-0.806506,1.804217 -0.629552,-10.724422 -0.017015,-9.966602z" id="svg_44"/>
   <path stroke="null" class="cls-1" d="m137.650454,52.059581c0.330089,0.954898 0.604029,1.944989 0.939222,2.897541a1.820594,2.510421 0 0 1 0.197373,1.278671c-0.030627,0.764858 -0.015313,1.53206 -0.028925,2.296917c-0.025523,1.475752 -0.056149,2.95385 -0.028925,4.429602c0,0.09854 0.008507,0.197079 0.015313,0.293273s0.047642,0.14781 0.131014,0.136079c0.19397,-0.028154 0.386238,-0.046923 0.580207,-0.058654c0.256925,-0.016423 0.510447,0 0.772477,-0.039885c0.170149,-0.023462 0.180358,-0.0305 0.183761,-0.27685c0.030627,-2.233569 0.085075,-4.457756 0.085075,-6.70071a0.946028,1.304481 0 0 1 0.06806,-0.4927c0.154836,-0.527892 0.304567,-1.058131 0.452597,-1.590715c0.255224,-0.938475 0.479821,-1.87695 0.762267,-2.796656a2.312324,3.188469 0 0 0 0.086776,-0.326119c0.040836,-0.183002 0.01021,-0.248696 -0.132717,-0.253388c-0.226298,0 -0.450894,0 -0.680596,0a0.170149,0.234619 0 0 0 -0.188866,0.183002c-0.01021,0.051615 -0.025523,0.100887 -0.037433,0.152502c-0.231403,0.968975 -0.462805,1.942642 -0.695909,2.913964a1.442863,1.989567 0 0 1 -0.13782,0.469237c-0.062955,-0.251042 -0.119105,-0.469237 -0.170149,-0.668663c-0.197373,-0.828204 -0.393044,-1.87695 -0.588716,-2.712192c-0.096985,-0.403544 -0.105493,-0.42466 -0.406656,-0.398852a11.471442,15.817995 0 0 1 -1.430952,0.023462c-0.110596,0 -0.124208,0.028154 -0.062955,0.168925c0.119105,0.265119 0.216089,0.783627 0.316478,1.072208l-0.000001,0.000004z" id="svg_45"/>
   <path stroke="null" class="cls-1" d="m142.543936,63.593437a0.769073,1.060477 0 0 0 0.786089,-1.140246c0,-0.67101 -0.314775,-1.140246 -0.774178,-1.140246a0.828626,1.142592 0 0 0 -0.011911,2.280494l0,-0.000002z" id="svg_46"/>
   <path stroke="null" class="cls-2" d="m104.757258,83.519606c0.028925,-5.586271 0.076567,-11.233545 0.039135,-16.819816c0,-0.354275 0.025523,-0.33785 0.250119,-0.382429c0.052746,0 0.117402,0 0.170149,0c0.437282,-0.018769 0.903491,-0.032846 1.332266,-0.061c0.183761,-0.011731 0.219492,-0.084463 0.229701,-0.302658a4.124411,5.687158 0 0 0 0,-0.635817c0,-0.201771 -0.074866,-0.279196 -0.214388,-0.297965a6.401004,8.826356 0 0 0 -0.723133,0c-1.58749,0.072733 -3.180084,0.138425 -4.764171,0.133733c-0.170149,0 -0.359015,0 -0.510447,0.023462s-0.20588,0.096194 -0.210985,0.302658s0,0.499738 0.01021,0.703856s0.06806,0.283888 0.212686,0.283888c0.255224,0 0.522357,-0.011731 0.779283,0c0.219492,0 0.445791,0 0.661879,0c0.141224,0 0.183761,0.079771 0.170149,0.269812c0,0.039885 0,0.06804 0,0.114963c-0.035731,3.153275 -0.020418,5.701235 -0.017015,9.037514c0,2.092798 0.020418,5.185073 0.028925,7.484337c0,0.5232 0.091881,0.703856 0.490029,0.689779c0.042537,0 0.098687,0 0.144626,0c0.510447,-0.018769 1.060028,0 1.553459,-0.028154c0.292656,-0.028154 0.355611,-0.077425 0.367522,-0.516162l0.000001,0z" id="svg_47"/>
   <path stroke="null" class="cls-2" d="m113.681571,65.127845a15.539704,21.427728 0 0 0 -2.106444,-0.011731c-0.204179,0.014077 -0.226298,0.053962 -0.243313,0.33785c-0.025523,0.457506 -0.056149,0.915013 -0.052746,1.374865c0,0.809435 0,1.618869 0,2.428304c0,0.199425 -0.037433,0.293273 -0.19397,0.286235c-0.221194,0 -0.442387,0 -0.663581,0.021115c-0.153135,0.016423 -0.202478,-0.063346 -0.204179,-0.272158c0,-0.741394 -0.018717,-1.48279 -0.032329,-2.224185a9.387118,12.943914 0 0 0 -0.042537,-1.407712c-0.039135,-0.419967 -0.049343,-0.469237 -0.340298,-0.469237a20.028232,27.61697 0 0 0 -2.021369,0.0305c-0.258626,0.023462 -0.265432,0.042231 -0.267133,0.422313c0,0.809435 0,1.618869 0,2.428304c-0.01021,2.062298 0.096985,4.124596 0.096985,6.186896c0,0.082117 0,0.161887 0.011911,0.234619c0.042537,1.407712 0.091881,2.829502 0.127612,4.244252c0.03403,1.29275 0.054448,2.580806 0.083373,3.882941c0,0.283888 0.020418,0.565431 0.039135,0.846973s0.071463,0.361313 0.265432,0.377737c0.597223,0.044577 1.191042,0.103233 1.789967,0.070387c0.42367,-0.023462 0.449193,-0.072733 0.452597,-0.659279c0.008507,-2.111569 -0.107194,-4.206714 -0.122507,-6.311244c-0.011911,-1.738525 0,-3.479396 0,-5.220266c0,-0.321427 0,-0.321427 0.246716,-0.326119q0.217791,0 0.43388,0c0.367522,0 0.340298,-0.051615 0.340298,0.485662c-0.057851,3.601398 -0.013612,7.202795 0.022119,10.792462c0,0.234619 0.018717,0.469237 0.028925,0.687433c0,0.175963 0.066358,0.269812 0.200776,0.262773c0.680596,-0.037538 1.361191,0.09854 2.041787,0.079771c0.292656,0 0.306268,-0.018769 0.301163,-0.443429c-0.008507,-0.537277 -0.025523,-1.0769 -0.03403,-1.616523c-0.039135,-2.414227 0,-4.828454 0,-7.343566c0.062955,-2.597229 0.030627,-5.295344 0.062955,-7.99346c0,-0.283888 0.013612,-0.567777 0.011911,-0.851665s-0.017015,-0.302658 -0.233104,-0.330812l0.000001,-0.000008z" id="svg_48"/>
   <path stroke="null" class="cls-2" d="m119.594247,66.232899c-3.649695,-4.926993 -5.895661,5.898314 -4.594022,13.166802c0.153135,0.863396 0.301163,1.736179 0.655073,2.496342c0.610835,1.306827 1.458176,2.045875 2.61519,2.027106c3.370651,-0.056308 4.403455,-13.530462 1.323759,-17.690251zm-1.395221,15.414451c-1.201252,2.688731 -0.937521,-16.000997 -0.025523,-14.870135c0.813312,1.015898 0.651671,13.450691 0.025523,14.870135z" id="svg_49"/>
   <path stroke="null" class="cls-2" d="m128.943932,65.618197c-0.018717,-0.34489 -0.090179,-0.415275 -0.340298,-0.401198s-0.539372,0.035192 -0.808208,0.063346s-0.290955,0.044577 -0.284149,0.42466c0.056149,2.815425 -0.032329,12.66941 -0.724835,14.616747c-0.74355,2.090452 -1.658952,0.429352 -1.740624,-1.93795c-0.028925,-0.856358 -0.18206,-11.871708 -0.108895,-12.847722a1.658952,2.287533 0 0 0 0,-0.358967a0.187164,0.258081 0 0 0 -0.221194,-0.281542l-0.170149,0.018769l-1.987339,0.175963c-0.209283,0.018769 -0.221194,0.016423 -0.243313,0.319081c-0.231403,3.085237 -0.340298,12.627179 0.311373,15.37691c0.779283,3.254162 4.165247,4.497641 5.20996,1.048746c1.143401,-3.756246 1.32546,-12.101633 1.10767,-16.216847l0.000001,0.000004z" id="svg_50"/>
   <path stroke="null" class="cls-2" d="m135.530397,79.55455a6.46566,8.915512 0 0 0 -0.35391,-2.49165c-0.391343,-1.607139 -1.020893,-3.021889 -1.74743,-4.377985c-0.28585,-0.534931 -0.566596,-1.072208 -0.835431,-1.623562a4.514052,6.224435 0 0 1 -0.712924,-2.205415a1.488803,2.052914 0 0 1 0.07997,-1.407712a0.430476,0.593585 0 0 1 0.549581,-0.34489a0.792895,1.093323 0 0 1 0.233104,0.152502a1.669162,2.30161 0 0 1 0.541074,0.814127a3.147755,4.340446 0 0 1 0.340298,1.1379c0.03403,0.19004 0.112299,0.234619 0.233104,0.143117s0.273939,-0.199425 0.401551,-0.316735c0.209283,-0.194733 0.233104,-0.302658 0.170149,-0.64051a6.887629,9.497366 0 0 0 -0.38794,-1.407712a2.703667,3.728091 0 0 0 -1.228476,-1.736179a1.701489,2.346187 0 0 0 -1.204654,-0.213504a2.051996,2.829502 0 0 0 -1.264207,1.299789c-0.496835,1.058131 -0.634655,2.242956 -0.590417,3.470012s0.394745,2.315687 0.850745,3.343317a13.635737,18.802345 0 0 0 1.248894,2.292225a16.087582,22.183201 0 0 1 1.286326,2.249994a3.508471,4.837839 0 0 1 0.600625,2.46115a2.744503,3.7844 0 0 1 -0.170149,1.564908a0.835431,1.151977 0 0 1 -1.361191,0.45516a1.647041,2.27111 0 0 1 -0.369223,-0.656933a3.755187,5.178035 0 0 1 -0.396447,-1.53206c-0.03403,-0.234619 -0.062955,-0.469237 -0.098687,-0.703856a0.20588,0.283888 0 0 0 -0.248418,-0.255735a8.378134,11.552625 0 0 0 -1.034505,0.36366a0.238208,0.328465 0 0 0 -0.170149,0.40589a4.594022,6.334706 0 0 0 0.806506,2.782579c0.486626,0.912667 1.155311,1.327942 2.041787,1.346712c0.045941,0 0.161642,0 0.275642,-0.037538c0.680596,-0.145463 1.206355,-0.654587 1.684475,-1.297442a2.770024,3.819592 0 0 0 0.830327,-3.033619l0,-0.000006z" id="svg_51"/>
   <path stroke="null" class="cls-2" d="m141.9314,83.547759c-0.015313,-0.251042 -0.044239,-0.499738 -0.06806,-0.750781c-0.170149,-1.947335 -0.340298,-3.899364 -0.537671,-5.842006q-0.428775,-4.237214 -0.74355,-8.493198a18.570055,25.606288 0 0 0 -0.309672,-2.831848c-0.057851,-0.366006 -0.073164,-0.39416 -0.340298,-0.419967c-0.54788,-0.051615 -1.09746,-0.018769 -1.64534,-0.011731a0.248418,0.342544 0 0 0 -0.26203,0.305004c-0.028925,0.192387 -0.066358,0.387121 -0.090179,0.581854c-0.359015,3.118083 -0.631253,6.254935 -0.930715,9.384748c-0.188866,1.959065 -0.370925,3.920479 -0.558088,5.879544c-0.059552,0.645202 -0.124208,1.288056 -0.18206,1.933258c-0.037433,0.40589 0,0.469237 0.306268,0.448121c0.202478,0 0.404955,-0.0305 0.60573,-0.039885a0.256925,0.354275 0 0 0 0.284149,-0.316735c0.023821,-0.194733 0.045941,-0.391813 0.064657,-0.588892c0.062955,-0.631125 0.124208,-1.262248 0.188866,-1.893373c0.030627,-0.314388 0.03403,-0.316735 0.268836,-0.319081s0.462805,0 0.694208,0c0.26203,0 0.258626,0 0.299462,0.366006c0.091881,0.825858 0.18206,1.654062 0.279044,2.477573c0.047642,0.40589 0.124208,0.4927 0.418567,0.497392s0.634655,0 0.952834,0l0,-0.016423l0.340298,0c0.23991,0 0.481522,0.021115 0.721431,0s0.263731,-0.058654 0.243313,-0.349583l-0.000001,0.000002zm-3.921933,-4.415525c-0.110596,0 -0.120806,-0.084463 -0.110596,-0.208812c0.057851,-0.579508 0.108895,-1.159017 0.170149,-1.736179q0.108895,-1.126169 0.222895,-2.247648c0,-0.056308 -0.011911,-0.136079 0.078269,-0.173617c0.105493,1.45229 0.314775,2.874079 0.438985,4.366254l-0.7997,0l-0.000001,0.000002z" id="svg_52"/>
   <path stroke="null" class="cls-2" d="m148.424284,65.174768c-0.250119,0.032846 -0.500238,0.0305 -0.750356,0.039885s-0.275642,0.025808 -0.294357,0.380083c-0.083373,1.550829 -0.108895,3.10166 -0.086776,4.654835s0.049343,3.160314 0.071463,4.739298a0.709521,0.97836 0 0 1 -0.03403,0.469237c-0.136119,-0.5232 -0.253522,-0.966629 -0.367522,-1.407712c-0.663581,-2.580806 -1.45137,-5.114689 -2.159191,-7.681418a5.182736,7.146487 0 0 0 -0.352209,-1.044054a0.355611,0.490354 0 0 0 -0.323284,-0.27685c-0.394745,-0.014077 -0.789491,-0.042231 -1.191042,-0.053962c-0.204179,0 -0.233104,0.042231 -0.238208,0.321427c-0.017015,0.74374 -0.039135,1.487483 -0.042537,2.231223c-0.030627,4.896493 0.051045,9.795331 0.071463,14.69417c0,0.469237 0.013612,0.938475 0.017015,1.393635c0,0.197079 0.059552,0.297965 0.20588,0.295619c0.212686,0 0.42367,0 0.634655,0c0.394745,0 0.394745,0 0.398149,-0.537277c0.017015,-3.425433 0,-6.850868 -0.011911,-10.2763a1.060028,1.461675 0 0 1 0.03403,-0.5232c0.045941,0.194733 0.073164,0.305004 0.096985,0.415275q0.306268,1.431175 0.665283,2.841233c0.510447,2.029452 1.13149,4.002596 1.67937,6.015623a11.609263,16.008035 0 0 0 0.469611,1.583677c0.052746,0.138425 0.103791,0.234619 0.233104,0.234619q0.666984,0.028154 1.328863,0.075079a0.142925,0.197079 0 0 0 0.170149,-0.197079c0,-0.079771 0,-0.15954 0.008507,-0.234619c0.020418,-3.331587 0.035731,-6.665518 0,-9.997104c-0.023821,-2.09749 -0.027224,-4.194983 0.049343,-6.290127c0.018717,-0.469237 0.039135,-0.954898 0.042537,-1.433521c0.01021,-0.431698 -0.03403,-0.478623 -0.324985,-0.431698l0.000001,0.000004z" id="svg_53"/>
   <path stroke="null" class="cls-2" d="m155.20472,70.479497a7.010136,9.666291 0 0 0 -1.020893,-3.566204a2.793846,3.852439 0 0 0 -1.934594,-1.776064c-0.197373,-0.046923 -0.398149,-0.100887 -0.597223,-0.12904a7.042465,9.71087 0 0 0 -1.670863,-0.06804c-0.610835,0.114963 -0.49173,0.110271 -0.498536,0.762512c-0.032329,2.92335 0,5.844352 0.062955,8.765356c0,1.140246 0,2.28284 0,3.425433c0.011911,1.858181 0.03403,3.71636 0.052746,5.576887c0,0.412929 0.028925,0.445775 0.340298,0.452813q0.723133,0 1.442863,-0.06804a3.717755,5.126419 0 0 0 0.794596,-0.204119a3.966171,5.468962 0 0 0 2.625398,-3.37851c0.401551,-1.407712 0.541074,-2.876425 0.621043,-4.359216a15.155166,20.897489 0 0 0 -0.217791,-5.433769l0.000001,0.000002zm-2.086026,8.446273a5.47199,7.545339 0 0 1 -0.455999,2.210108a1.437758,1.982529 0 0 1 -0.651671,0.961937c0,-0.305004 0,-0.539623 0,-0.771896c0.047642,-4.155098 0.090179,-8.307848 0.146329,-12.462947c0,-0.62174 0.028925,-1.245825 0.035731,-1.87695c0,-0.295619 0.037433,-0.321427 0.236507,-0.204119a1.020893,1.407712 0 0 1 0.534268,0.692125a3.001427,4.138675 0 0 1 0.272238,1.173094a18.086832,24.93997 0 0 1 0.195672,4.366254a29.852633,41.163856 0 0 1 -0.313074,5.910046l0,0.002346l-0.000001,0.000002z" id="svg_54"/>
   <path stroke="null" class="cls-1" d="m114.69736,85.586596c-0.813312,0.0305 -1.624922,0.075079 -2.438235,0.103233c-0.108895,0 -0.110596,0.084463 -0.119105,0.183002a5.880348,8.108423 0 0 0 -0.025523,1.093323c0.020418,1.628254 0.040836,3.256508 0.066358,5.236691c0.008507,0.469237 0,1.269287 0.027224,2.078721c0.027224,1.121477 0.047642,2.242956 0.044239,3.364433c0,0.358967 0.064657,0.448121 0.321581,0.509123a3.147755,4.340446 0 0 0 0.828626,0.037538c0.340298,-0.042231 0.372626,-0.103233 0.376029,-0.558392c0,-0.072733 0,-0.143117 0,-0.213504c-0.03403,-1.022938 -0.073164,-2.045875 -0.102089,-3.066467c-0.040836,-1.442906 -0.03403,-2.883464 -0.028925,-4.326369c0,-0.204119 0,-0.204119 0.14803,-0.218196c0.321581,-0.0305 0.643163,-0.065692 0.966446,-0.070387c0.149731,0 0.180358,-0.044577 0.197373,-0.24635c0.013612,-0.150156 0.017015,-0.302658 0.027224,-0.452813c0.018717,-0.258081 0,-0.302658 -0.187164,-0.314388a7.370852,10.163683 0 0 0 -1.007282,0c-0.090179,0 -0.131014,-0.018769 -0.127612,-0.154848c0.01021,-0.586546 0.018717,-1.173094 0.023821,-1.761987c0,-0.131387 0.040836,-0.168925 0.127612,-0.171271c0.245014,0 0.490029,-0.018769 0.735043,-0.032846c0.103791,0 0.20588,-0.014077 0.309672,-0.025808a0.117402,0.161887 0 0 0 0.115701,-0.175963c0,-0.114963 0.011911,-0.234619 0.020418,-0.347237c0.030627,-0.39416 -0.008507,-0.469237 -0.299462,-0.469237z" id="svg_55"/>
   <path stroke="null" class="cls-1" d="m118.357264,97.235416c-0.340298,0 -0.680596,0 -1.020893,0c-0.187164,0 -0.188866,0 -0.199074,-0.272158c-0.028925,-0.692125 -0.062955,-1.38425 -0.07997,-2.078721q-0.061254,-2.374342 -0.045941,-4.753375c0,-0.061 0,-0.124348 0,-0.185348s0.03403,-0.12904 0.096985,-0.12904c0.037433,0 0.076567,0 0.115701,0c0.302866,-0.0305 0.604029,-0.058654 0.908596,-0.063346c0.149731,0 0.170149,-0.046923 0.192268,-0.251042l0.030627,-0.396506c0.020418,-0.330812 0,-0.356621 -0.228,-0.370698a7.656702,10.557843 0 0 0 -0.968147,0c-0.076567,0 -0.122507,0 -0.120806,-0.136079c0,-0.595931 0.013612,-1.191864 0.017015,-1.787794c0,-0.133733 0.051045,-0.15954 0.136119,-0.161887c0.231403,0 0.464506,-0.021115 0.695909,-0.032846l0.309672,-0.021115c0.096985,0 0.154836,-0.06804 0.154836,-0.21585s0.015313,-0.33785 0.015313,-0.506777c0,-0.21585 -0.035731,-0.265119 -0.190567,-0.279196c-0.064657,0 -0.129313,0 -0.19397,0c-0.780984,0.037538 -1.560265,0.056308 -2.341249,0.107925c-0.100388,0 -0.117402,0.063346 -0.129313,0.168925a2.749606,3.791439 0 0 0 -0.023821,0.692125c0.017015,1.761987 0.035731,3.519281 0.052746,5.318806c0.039135,1.00886 0.018717,2.050567 0.054448,3.089929c0.027224,0.844627 0.015313,1.6916 0.022119,2.536229c0,0.09854 0,0.194733 0.01021,0.293273a0.253522,0.349583 0 0 0 0.229701,0.342544a2.448443,3.376164 0 0 0 0.384537,0.065692c0.393044,0.014077 0.786089,0.021115 1.180834,0.016423c0.302866,0 0.607431,0 0.908596,-0.053962c0.14803,-0.023462 0.159941,-0.039885 0.178656,-0.234619c0.011911,-0.150156 0.023821,-0.302658 0.028925,-0.452813c0,-0.222888 -0.020418,-0.248696 -0.18206,-0.248696l-0.000001,-0.000002z" id="svg_56"/>
   <path stroke="null" class="cls-1" d="m121.887855,97.235416c-0.340298,0 -0.680596,0 -1.020893,0c-0.187164,0 -0.190567,0 -0.200776,-0.272158c-0.027224,-0.692125 -0.061254,-1.38425 -0.07997,-2.078721q-0.057851,-2.374342 -0.045941,-4.753375c0,-0.061 0,-0.124348 0,-0.185348a0.083373,0.114963 0 0 1 0.095283,-0.12904c0.039135,0 0.078269,0 0.115701,0c0.302866,-0.0305 0.60573,-0.058654 0.910297,-0.063346c0.14803,0 0.170149,-0.046923 0.192268,-0.251042c0.01021,-0.131387 0.020418,-0.265119 0.028925,-0.396506c0.022119,-0.330812 0,-0.356621 -0.226298,-0.370698a7.656702,10.557843 0 0 0 -0.968147,0c-0.078269,0 -0.122507,0 -0.120806,-0.136079q0.01021,-0.893898 0.017015,-1.787794c0,-0.133733 0.051045,-0.15954 0.134418,-0.161887c0.233104,0 0.464506,-0.021115 0.695909,-0.032846c0.103791,0 0.207582,-0.011731 0.309672,-0.021115a0.142925,0.197079 0 0 0 0.156537,-0.21585c0,-0.168925 0.015313,-0.33785 0.015313,-0.506777c0,-0.21585 -0.037433,-0.265119 -0.190567,-0.279196c-0.064657,0 -0.131014,0 -0.19397,0c-0.780984,0.037538 -1.561968,0.056308 -2.341249,0.107925c-0.100388,0 -0.117402,0.063346 -0.131014,0.168925a2.909547,4.011981 0 0 0 -0.022119,0.692125c0.015313,1.761987 0.03403,3.519281 0.052746,5.318806c0.039135,1.00886 0.017015,2.050567 0.052746,3.089929c0.028925,0.844627 0.015313,1.6916 0.022119,2.536229c0,0.09854 0,0.194733 0.011911,0.293273a0.253522,0.349583 0 0 0 0.233104,0.33785a2.428025,3.34801 0 0 0 0.382835,0.065692c0.394745,0.014077 0.78779,0.021115 1.180834,0.016423c0.302866,0 0.607431,0 0.908596,-0.053962c0.14803,-0.023462 0.161642,-0.039885 0.178656,-0.234619c0.013612,-0.150156 0.025523,-0.302658 0.030627,-0.452813c0.001701,-0.218196 -0.022119,-0.244004 -0.183761,-0.244004l-0.000001,0z" id="svg_57"/>
   <path stroke="null" class="cls-1" d="m125.243192,97.455958c-0.265432,0.014077 -0.529163,0.035192 -0.792895,0.044577c-0.149731,0 -0.153135,0 -0.158238,-0.204119c-0.025523,-0.994783 -0.045941,-1.991914 -0.076567,-2.986696c-0.049343,-1.611831 -0.013612,-3.221316 0.030627,-4.8308c0.027224,-1.022938 0.039135,-2.367302 0.018717,-3.390241a1.740624,2.40015 0 0 0 -0.032329,-0.342544c-0.011911,-0.091502 -0.042537,-0.124348 -0.120806,-0.119656c-0.199074,0 -0.39985,0 -0.598924,0c-0.231403,0 -0.464506,0 -0.695909,0c-0.180358,0.011731 -0.19397,0.035192 -0.212686,0.283888s-0.030627,0.497392 -0.035731,0.746088c-0.045941,1.708025 -0.015313,3.737477 0,5.447846c0.025523,1.87695 0,3.772669 0.06806,5.659004c0.015313,0.429352 0.020418,0.422313 0.340298,0.441083c0.735043,0.042231 1.471788,-0.018769 2.211936,-0.021115c0.340298,0 0.340298,0 0.287551,-0.469237c-0.027224,-0.262773 -0.03403,-0.269812 -0.233104,-0.258081l-0.000001,0.000002z" id="svg_58"/>
   <path stroke="null" class="cls-1" d="m127.727366,86.942692c0,-0.323773 0,-0.647548 0,-0.971321s-0.035731,-0.340198 -0.246716,-0.36366c-0.39985,-0.042231 -0.7997,0 -1.19955,0a0.394745,0.544315 0 0 0 -0.076567,0.014077c-0.142925,0.039885 -0.158238,0.053962 -0.170149,0.258081a6.566048,9.053937 0 0 0 -0.052746,1.128515q0.025523,5.396231 0.045941,10.776037c0,0.333158 0.040836,0.391813 0.282448,0.401198q0.568298,0.021115 1.1417,0.035192c0.154836,0 0.202478,-0.061 0.209283,-0.290927c0.01021,-0.305004 0.018717,-0.610008 0.022119,-0.915013l0.044239,-5.093573l0.017015,0c0,-0.502085 0,-1.006514 0,-1.508598c-0.003404,-1.154325 -0.017015,-2.31334 -0.017015,-3.470012l-0.000002,0.000004z" id="svg_59"/>
   <path stroke="null" class="cls-1" d="m132.091687,85.649944c-0.170149,0.021115 -0.340298,0.018769 -0.510447,0.025808s-0.183761,0.016423 -0.195672,0.253388c-0.056149,1.039362 -0.073164,2.081067 -0.057851,3.122775s0.032329,2.111569 0.047642,3.174391a0.479821,0.661625 0 0 1 -0.023821,0.314388c-0.091881,-0.349583 -0.170149,-0.647548 -0.245014,-0.938475c-0.445791,-1.736179 -0.974953,-3.425433 -1.447968,-5.147535a3.624172,4.997379 0 0 0 -0.236507,-0.703856a0.23991,0.330812 0 0 0 -0.217791,-0.185348c-0.263731,0 -0.527462,-0.028154 -0.792895,-0.035192c-0.136119,0 -0.154836,0.028154 -0.159941,0.21585c-0.01021,0.499738 -0.025523,0.997129 -0.028925,1.494521c-0.018717,3.284662 0.035731,6.569323 0.047642,9.853987c0,0.312042 0.01021,0.62174 0.011911,0.938475c0,0.131387 0.040836,0.199425 0.139523,0.197079c0.141224,0 0.282448,0 0.425373,0c0.263731,0 0.263731,0 0.265432,-0.358967c0.011911,-2.296917 0,-4.591489 -0.008507,-6.888406a0.728237,1.004167 0 0 1 0.023821,-0.351929c0.030627,0.131387 0.049343,0.206465 0.064657,0.279196c0.13782,0.64051 0.28585,1.273979 0.445791,1.905104c0.340298,1.360789 0.758865,2.684039 1.126386,4.033096a7.925538,10.928541 0 0 0 0.314775,1.060477a0.170149,0.234619 0 0 0 0.156537,0.164233c0.29606,0 0.593819,0.028154 0.889879,0.049269a0.098687,0.136079 0 0 0 0.117402,-0.133733c0,-0.053962 0,-0.105579 0,-0.15954c0.013612,-2.233569 0.023821,-4.457756 0,-6.70071c-0.017015,-1.407712 -0.018717,-2.815425 0.032329,-4.223137c0.011911,-0.319081 0.027224,-0.638163 0.028925,-0.95959c0.017015,-0.286235 -0.017015,-0.321427 -0.212686,-0.295619l-0.000001,0z" id="svg_60"/>
   <path stroke="null" class="cls-1" d="m136.655081,91.398102c-0.369223,0 -0.735043,-0.032846 -1.102565,-0.051615a0.600625,0.828204 0 0 0 -0.078269,0c-0.125911,0 -0.153135,0.056308 -0.153135,0.258081s0.015313,0.213504 0.149731,0.234619c0.170149,0.021115 0.170149,0.021115 0.170149,0.234619c0,0.075079 0,0.14781 -0.011911,0.234619c-0.064657,0.95959 -0.125911,1.919181 -0.197373,2.878771a9.244193,12.746835 0 0 1 -0.141224,1.428829l-0.01021,0.063346a0.142925,0.197079 0 0 1 -0.273939,0.021115a1.607908,2.217146 0 0 1 -0.062955,-0.349583a8.167149,11.261699 0 0 1 -0.110596,-1.485137c-0.057851,-1.395981 -0.045941,-2.79431 -0.032329,-4.192637c0.042537,-4.359216 1.020893,-4.248944 1.250595,-3.650667c0.35391,0.912667 -0.151432,1.754948 0.575104,1.334981a0.154836,0.213504 0 0 0 0.103791,-0.201771c0.083373,-3.542742 -2.652622,-3.284662 -3.402979,-0.422313a8.25903,11.388393 0 0 0 -0.473015,5.361039a8.167149,11.261699 0 0 0 0.609134,3.13216a3.938948,5.431423 0 0 0 0.524059,1.220017c0.413462,0.703856 0.957939,0.903283 1.592594,0.720279c0.595522,-0.173617 0.900087,-0.724971 1.044715,-1.48279c0.01021,-0.051615 0.017015,-0.103233 0.023821,-0.154848a9.911176,13.666541 0 0 0 0.100388,-1.722102c0.037433,-1.055785 0,-2.111569 0.076567,-3.167352c0.013612,-0.187694 -0.032329,-0.244004 -0.170149,-0.241658l0.000001,-0.000002z" id="svg_61"/>
   <path stroke="null" class="cls-1" d="m140.953044,93.622289a7.826851,10.792462 0 0 0 -1.172326,-2.932735c-0.190567,-0.358967 -0.379432,-0.720279 -0.55979,-1.088631a3.008233,4.14806 0 0 1 -0.476417,-1.478098a0.99367,1.370173 0 0 1 0.052746,-0.938475a0.28585,0.39416 0 0 1 0.367522,-0.234619a0.527462,0.727317 0 0 1 0.156537,0.100887a1.111072,1.53206 0 0 1 0.362417,0.546662a2.154086,2.970273 0 0 1 0.228,0.762512c0.022119,0.126694 0.074866,0.157194 0.156537,0.096194s0.18206,-0.133733 0.267133,-0.213504c0.141224,-0.131387 0.158238,-0.201771 0.108895,-0.429352a4.522559,6.236166 0 0 0 -0.258626,-0.938475a1.815489,2.503381 0 0 0 -0.825222,-1.161364a1.126386,1.553175 0 0 0 -0.806506,-0.143117a1.361191,1.87695 0 0 0 -0.850745,0.870435a2.746204,3.786746 0 0 0 -0.394745,2.325071a3.418293,4.713491 0 0 0 0.573402,2.242956a9.176133,12.652987 0 0 0 0.835431,1.534406a10.707473,14.764556 0 0 1 0.864356,1.508598a2.363369,3.258854 0 0 1 0.401551,1.642331a1.822295,2.512767 0 0 1 -0.110596,1.051092a0.558088,0.76955 0 0 1 -0.906893,0.302658a1.102565,1.520329 0 0 1 -0.248418,-0.438737a2.582861,3.561512 0 0 1 -0.265432,-1.027631c-0.022119,-0.157194 -0.040836,-0.314388 -0.066358,-0.469237c-0.018717,-0.119656 -0.076567,-0.197079 -0.170149,-0.171271a5.461781,7.531262 0 0 0 -0.694208,0.234619a0.159941,0.220542 0 0 0 -0.114,0.269812a3.088203,4.258329 0 0 0 0.541074,1.87695a1.602803,2.210108 0 0 0 1.361191,0.903283c0.032329,0 0.108895,0 0.185462,-0.025808a2.070713,2.85531 0 0 0 1.129789,-0.870435a1.849519,2.550306 0 0 0 0.554686,-2.034144a4.357515,6.008585 0 0 0 -0.226298,-1.672831l-0.000001,-0.000002z" id="svg_62"/>
   <path stroke="null" class="cls-1" d="m143.609016,94.668652a0.828626,1.142592 0 1 0 0.774178,1.140246c0,-0.67101 -0.314775,-1.140246 -0.774178,-1.140246z" id="svg_63"/>
   <polyline stroke="null" fill="none" stroke-width="null" stroke-opacity="null" fill-opacity="null" opacity="0.5" points="229.51707220077515,38.85158443450928 229.28341436386108,38.85158443450928 229.16659307479858,39.03604221343994 229.0497260093689,39.22053813934326 229.0497260093689,39.405001640319824 229.16659307479858,39.405001640319824 229.51707220077515,39.589463233947754 230.10117864608765,39.589463233947754 230.80213689804077,39.589463233947754 231.0358099937439,39.589463233947754 231.15264654159546,39.589463233947754 231.38630437850952,39.589463233947754 231.5030951499939,39.589463233947754 231.61993169784546,39.589463233947754 231.85358953475952,39.589463233947754 " id="svg_101" stroke-linecap="round"/>
   <polyline stroke="null" fill="none" stroke-width="null" stroke-opacity="null" fill-opacity="null" opacity="0.5" points="192.0156683921814,44.57026958465576 191.89887762069702,44.57026958465576 191.66521978378296,44.385783195495605 191.43154668807983,44.385783195495605 191.08106756210327,44.385783195495605 190.73057317733765,44.385783195495605 190.26328802108765,44.385783195495605 190.02963018417358,44.385783195495605 189.3286566734314,45.3081579208374 188.74451971054077,46.96840953826904 187.80990362167358,50.28893184661865 187.80990362167358,51.02684688568115 187.80990362167358,51.76472759246826 187.92674016952515,52.5026159286499 188.27720403671265,53.05603313446045 188.74451971054077,53.4249906539917 189.6791205406189,53.60945415496826 190.6137671470642,53.60945415496826 191.43154668807983,53.60945415496826 192.0156683921814,53.60945415496826 192.48299932479858,53.05603313446045 192.59980535507202,52.5026159286499 192.71664190292358,51.5802640914917 192.71664190292358,50.84235668182373 192.71664190292358,49.919981956481934 192.71664190292358,49.366557121276855 192.59980535507202,48.81313991546631 192.48299932479858,48.444212913513184 192.24934148788452,48.259718894958496 192.1324896812439,48.075255393981934 192.0156683921814,48.075255393981934 191.89887762069702,48.075255393981934 191.78204107284546,48.075255393981934 191.43154668807983,48.075255393981934 191.08106756210327,48.075255393981934 190.73057317733765,47.70630168914795 190.26328802108765,47.70630168914795 190.14646673202515,47.521830558776855 190.02963018417358,47.521830558776855 189.91280889511108,47.521830558776855 " id="svg_102" stroke-linecap="round"/>
   <polyline stroke="null" fill="none" stroke-width="null" stroke-opacity="null" opacity="0.5" points="230.9189887046814,37.19132328033447 230.80213689804077,37.19132328033447 230.4517035484314,37.19132328033447 230.3348822593689,37.19132328033447 229.98438787460327,37.19132328033447 229.28341436386108,37.19132328033447 228.46560430526733,37.19132328033447 227.88145208358765,37.19132328033447 227.6478247642517,37.19132328033447 227.5310034751892,37.19132328033447 227.41416692733765,37.19132328033447 227.2973608970642,37.37578868865967 227.2973608970642,37.56028079986572 227.2973608970642,37.74474239349365 227.41416692733765,38.1136999130249 227.41416692733765,38.298163414001465 227.41416692733765,38.667120933532715 227.41416692733765,38.85158443450928 227.5310034751892,39.03604221343994 227.6478247642517,39.03604221343994 227.76466131210327,39.03604221343994 227.76466131210327,39.22053813934326 228.1151556968689,39.22053813934326 228.2319769859314,39.22053813934326 228.81611394882202,39.589463233947754 229.28341436386108,39.589463233947754 229.8675513267517,39.77395725250244 230.2180151939392,39.77395725250244 230.6853461265564,39.77395725250244 231.15264654159546,39.77395725250244 231.38630437850952,39.77395725250244 231.85358953475952,39.77395725250244 232.08724737167358,39.77395725250244 232.20408391952515,39.77395725250244 232.4377417564392,39.77395725250244 232.55453252792358,39.589463233947754 " id="svg_103" stroke-linecap="round"/>
   <polyline stroke="null" fill="none" stroke-width="null" stroke-opacity="null" points="233.07911443710327,38.55663013458252 232.96461248397827,38.593092918395996 " id="svg_104" stroke-linecap="round"/>
  </g>
  <path fill="none" stroke-width="null" id="svg_98" d="m120.499924,33.166676c0,0 0,0.333336 0.333328,0.333336c0.333336,0 0.666672,0 1,0l0.333336,0l0.666664,0l0.333336,0"/>
 </g>
</svg>