<svg width="250" height="250" xmlns="http://www.w3.org/2000/svg" xml:space="preserve" style="enable-background:new 0 0 250 250;" version="1.1">
 <style type="text/css">.st0{fill:#DD0031;}
	.st1{fill:#C3002F;}
	.st2{fill:#FFFFFF;}</style>

 <g>
  <title>background</title>
  <rect fill="none" id="canvas_background" height="819" width="1662" y="-1" x="-1"/>
 </g>
 <g>
  <title>Layer 1</title>
  <g stroke="null" id="svg_1">
   <polygon stroke="null" id="svg_2" points="125,57.223419189453125 125,57.223419189453125 125,57.223419189453125 61.899993896484375,79.7252426147461 71.52426147460938,163.1582260131836 125,192.7765884399414 125,192.7765884399414 125,192.7765884399414 178.47572326660156,163.1582260131836 188.10000610351562,79.7252426147461 " class="st0"/>
   <polygon stroke="null" id="svg_3" points="125,57.223419189453125 125,72.26982116699219 125,72.20204162597656 125,140.8597183227539 125,140.8597183227539 125,192.7765884399414 125,192.7765884399414 178.47572326660156,163.1582260131836 188.10000610351562,79.7252426147461 125,57.223419189453125 " class="st1"/>
   <path stroke="null" id="svg_4" d="m124.999994,72.202044l-39.445972,88.448443l0,0l14.707519,0l0,0l7.92986,-19.790763l33.481633,0l7.92986,19.790763l0,0l14.707519,0l0,0l-39.310419,-88.448443l0,0l0,0l0,0l0,0zm11.522019,56.457895l-23.044039,0l11.522019,-27.720623l11.522019,27.720623z" class="st2"/>
  </g>
 </g>
</svg>