<svg width="122.52" height="122.52" xmlns="http://www.w3.org/2000/svg">
 <metadata id="metadata8">image/svg+xml</metadata>

 <g>
  <title>background</title>
  <rect fill="none" id="canvas_background" height="402" width="582" y="-1" x="-1"/>
 </g>
 <g>
  <title>Layer 1</title>
  <g id="g10" transform="matrix(0.7765181665204763,0,0,-0.7765181665204763,-0.4178834752675016,122.93788396513374) ">
   <g id="g12" transform="translate(33.48512268066406,0) scale(0.10000000149011612) ">
    <path fill="#f03c2e" fill-rule="nonzero" d="m901.543,835.212382l-401.191,401.175c-23.094,23.11 -60.567,23.11 -83.692,0l-83.301,-83.316l105.672,-105.676c24.563,8.293 52.727,2.727 72.297,-16.847c19.688,-19.696 25.203,-48.102 16.699,-72.75l101.856,-101.844c24.648,8.496 53.066,3.004 72.754,-16.711c27.5,-27.492 27.5,-72.059 0,-99.574c-27.52,-27.516 -72.078,-27.516 -99.61,0c-20.683,20.703 -25.8,51.097 -15.312,76.582l-95,94.992l0,-249.969c6.699,-3.32 13.027,-7.742 18.613,-13.312c27.5,-27.497 27.5,-72.059 0,-99.598c-27.5,-27.488 -72.09,-27.488 -99.57,0c-27.5,27.539 -27.5,72.101 0,99.598c6.797,6.789 14.668,11.925 23.066,15.363l0,252.281c-8.398,3.438 -16.25,8.531 -23.066,15.367c-20.828,20.821 -25.84,51.395 -15.156,76.977l-104.18,104.195l-275.0978,-275.074c-23.10545,-23.129 -23.10545,-60.602 0,-83.711l401.2108,-401.1758c23.098,-23.10545 60.559,-23.10545 83.692,0l399.316,399.3168c23.113,23.113 23.113,60.605 0,83.711" id="path14"/>
   </g>
  </g>
 </g>
</svg>