<svg width="400" height="280" xmlns="http://www.w3.org/2000/svg">
 <metadata id="metadata3029">image/svg+xml</metadata>
 <defs>
  <clipPath id="clipPath3039">
   <path id="path3041" d="m0,1765.9l0,-1765.9l1283.94,0l0,1765.9l-1283.94,0z"/>
  </clipPath>
 </defs>
 <g>
  <title>background</title>
  <rect fill="none" id="canvas_background" height="282" width="402" y="-1" x="-1"/>
 </g>
 <g>
  <title>Layer 1</title>
  <g stroke="null" id="g902">
   <g stroke="null" id="g865" transform="matrix(0.5976117343270994,0,0,0.5823517505556379,-120.01085701680302,11.676492553077864) ">
    <path fill="#f0424d" fill-rule="nonzero" stroke-width="0.125" id="path3043" d="m482.332235,274.552584c-4.86675,-2.58937 -7.64651,-5.50787 -8.26176,-8.67675c-0.59325,-3.06837 0.77538,-6.481 4.1885,-10.43612c8.15638,-9.35763 12.64888,-21.37888 12.64888,-33.85138c0,-28.4425 -23.141,-51.58625 -51.58638,-51.58625c-0.04636,0 -0.2275,0.002 -0.2275,0.002c0,0 -0.18562,-0.002 -0.23437,-0.002c-28.44638,0 -51.584,23.14375 -51.584,51.58625c0,12.4725 4.49162,24.49375 12.65087,33.85538c3.4385,3.98137 4.77438,7.25587 4.20413,10.29637c-0.59188,3.1655 -3.378,6.1245 -8.28763,8.8085c-7.52787,-6.27437 -14.18462,-14.65712 -18.291,-23.06487c-2.22712,-4.56288 -3.94137,-9.38163 -5.09725,-14.32163c-1.18988,-5.0775 -1.78607,-10.3175 -1.78607,-15.57375c0,-9.19875 1.79982,-18.13375 5.35695,-26.5475c3.438,-8.1175 8.352,-15.4125 14.61625,-21.67125c6.25725,-6.2625 13.55175,-11.17625 21.67187,-14.6125c8.412,-3.5575 17.34225,-5.36 26.54588,-5.36c0.04875,0 0.2275,0 0.2275,0c0,0 0.188,0 0.23437,0c9.20363,0 18.13525,1.8025 26.54838,5.36c8.11762,3.43625 15.41162,8.35 21.67175,14.6125c6.25875,6.25875 11.1775,13.55375 14.61375,21.67125c3.5575,8.41375 5.36125,17.34875 5.36125,26.5475c0,5.25625 -0.6025,10.49625 -1.78875,15.57375c-1.155,4.94 -2.87,9.75875 -5.1,14.32163c-4.10625,8.41112 -10.7575,16.793 -18.29562,23.06887"/>
    <path fill="#f0424d" fill-rule="nonzero" stroke-width="0.125" id="path3045" d="m457.170105,287.310834c-0.7925,-0.4985 -3.5,-2.51262 -6.13913,-6.16887c-2.53175,-3.49375 -5.51075,-9.28963 -5.355,-17.05138c0.09762,-4.67137 1.03413,-9.22012 2.78913,-13.51462c1.74212,-4.25763 4.24062,-8.15888 7.42325,-11.59138l0.0195,-0.02625c0.23437,-0.2725 0.46637,-0.54375 0.70312,-0.8125c1.20125,-1.39375 2.4425,-2.8325 3.43263,-4.51625c1.22075,-2.07 2.10937,-4.245 2.63775,-6.47c0.813,-3.43625 0.86087,-7.08375 0.13325,-10.54375c-0.67138,-3.18125 -2.02388,-6.26375 -3.9125,-8.92125c-1.82963,-2.575 -4.2125,-4.82125 -6.89463,-6.49375c-2.79537,-1.74625 -6.00675,-2.915 -9.27775,-3.37875c-1.1075,-0.15875 -2.24862,-0.24 -3.395,-0.24c-0.07863,0 -0.16662,0 -0.24562,0c-0.07862,0 -0.16025,0 -0.24375,0c-1.144,0 -2.2875,0.0812 -3.3915,0.24c-3.26913,0.46375 -6.48,1.6325 -9.27838,3.37875c-2.68162,1.6725 -5.06937,3.91875 -6.8975,6.49375c-1.88812,2.6575 -3.23437,5.74 -3.91162,8.92125c-0.7255,3.46 -0.68163,7.1075 0.13725,10.54375c0.52637,2.225 1.415,4.4 2.63325,6.47c0.99512,1.68375 2.2345,3.1225 3.43612,4.51625c0.23625,0.26875 0.46625,0.54 0.705,0.8125l0.01425,0.02625c3.188,3.4325 5.684,7.33375 7.42625,11.59138c1.75388,4.2945 2.69388,8.84325 2.78663,13.51462c0.15775,7.76175 -2.82175,13.55763 -5.35063,17.05138c-2.6445,3.65625 -5.34962,5.67037 -6.143,6.16887c-1.32762,-0.355 -2.65187,-0.75387 -3.95362,-1.18987c-3.9185,-1.314 -7.73488,-2.99513 -11.36138,-5.00788c6.23438,-3.354 10.19675,-9.90187 10.19675,-17.03812c0,-4.72213 -1.83537,-9.25188 -5.45412,-13.457c-0.05363,-0.064 -0.10938,-0.11575 -0.15088,-0.15775c-0.0073,-0.01062 -0.019,-0.017 -0.02775,-0.02875c-0.3555,-0.3955 -0.7075,-0.78175 -1.05375,-1.15775c-1.0395,-1.14163 -2.02487,-2.22038 -2.90475,-3.40163c-3.28325,-4.385 -5.6885,-9.5275 -6.958,-14.86875c-1.37987,-5.8075 -1.45712,-11.9675 -0.22462,-17.81375c1.13425,-5.39 3.42675,-10.6175 6.62112,-15.115c3.09025,-4.35125 7.11813,-8.14375 11.64688,-10.9675c4.74462,-2.96 10.18312,-4.93875 15.72562,-5.72875c1.877,-0.27 3.79988,-0.40125 5.72075,-0.40125c0.081,0 0.2695,0 0.2695,0c0.07913,0 0.16213,0 0.24313,0c1.92137,0 3.84962,0.13125 5.72412,0.40125c5.5445,0.79 10.98,2.76875 15.72513,5.72875c4.52875,2.82375 8.55812,6.61625 11.64887,10.9675c3.19238,4.4975 5.48488,9.725 6.62363,15.115c1.228,5.84625 1.14887,12.00625 -0.22713,17.81375c-1.27287,5.34125 -3.67525,10.48375 -6.96287,14.86875c-0.88138,1.18125 -1.86275,2.26 -2.90625,3.40163c-0.34175,0.376 -0.69238,0.76225 -1.04875,1.15775c-0.0122,0.0092 -0.0205,0.01812 -0.0327,0.02875c-0.0415,0.042 -0.10013,0.09625 -0.15037,0.16612c-3.668,4.38963 -5.45263,8.7905 -5.45263,13.44863c0,7.13625 3.96238,13.68412 10.20363,17.03812c-3.628,2.01275 -7.44488,3.69388 -11.36338,5.00788c-1.30125,0.436 -2.63088,0.83487 -3.9575,1.18987"/>
    <path fill="#f0424d" fill-rule="nonzero" stroke-width="0.125" id="path3047" d="m439.089105,235.700834c-7.42188,0 -13.46338,-6.04 -13.46338,-13.46375c0,-7.425 6.0415,-13.465 13.46338,-13.465c7.42187,0 13.46037,6.04 13.46037,13.465c0,7.42375 -6.0385,13.46375 -13.46037,13.46375"/>
   </g>
   <g stroke="null" id="g871" transform="matrix(0.6384088631475051,0,0,0.6221071268669123,-18.416646014389784,-59.347664129054465) ">
    <path fill="#333c46" fill-rule="nonzero" stroke-width="0.125" id="path3049" d="m370.876914,328.591161c0,8.86025 -0.7935,11.31 -2.92775,13.4477c-1.26475,1.26514 -3.24375,2.13379 -6.963,2.13379l-13.05022,0c-4.19239,0 -6.72072,-0.7124 -8.46339,-2.45019c-2.76563,-2.77005 -3.55664,-6.0923 -3.55664,-18.9038c0,-12.8135 0.79102,-16.13725 3.55664,-18.90388c1.74267,-1.73975 4.271,-2.44962 8.46339,-2.44962l12.9736,0c3.87262,0 5.61237,0.78762 6.95799,2.13475c2.05526,2.05512 2.84863,4.90287 2.84863,12.88862l-7.98725,0c-0.16012,-5.53612 -0.47562,-6.48337 -0.95163,-6.9585c-0.47562,-0.47362 -1.107,-0.71137 -2.92587,-0.71137l-9.88712,0c-2.45073,0 -3.08353,0.23775 -3.63627,0.7915c-0.79101,0.78862 -1.1875,2.2925 -1.1875,13.2085c0,10.91262 0.39649,12.4165 1.1875,13.2075c0.55274,0.55375 1.18554,0.7915 3.63627,0.7915l9.96437,0c1.74162,0 2.53563,-0.15775 3.08537,-0.71138c0.55475,-0.55525 0.87213,-2.13775 0.87213,-7.51512l7.99075,0"/>
    <path fill="#333c46" fill-rule="nonzero" stroke-width="0.125" id="path3051" d="m384.797284,318.941161l19.456,0c0,-7.19625 -0.476,-8.77875 -1.18362,-9.49113c-0.478,-0.47362 -1.1875,-0.78862 -3.63763,-0.78862l-9.811,0c-2.45075,0 -3.0835,0.23737 -3.71737,0.86862c-0.71238,0.71388 -1.02538,2.13388 -1.10638,9.41113zm0,6.5665c0.08101,8.38225 0.55225,10.04337 1.1875,10.67625c0.63375,0.63375 1.1855,0.7925 3.63625,0.7925l11.07325,0c1.82076,0 2.37538,-0.3165 2.851,-0.7925c0.54988,-0.55375 0.708,-1.5025 0.87013,-5.29888l7.98538,0c-0.15726,6.64263 -0.791,9.01613 -2.92776,11.15383c-1.34324,1.34472 -3.16212,2.13379 -6.95799,2.13379l-13.84088,0c-4.19288,0 -6.72363,-0.7124 -8.46388,-2.45019c-2.7705,-2.77005 -3.55662,-6.0923 -3.55662,-18.9038c0,-12.8135 0.78612,-16.13725 3.55662,-18.90388c1.74025,-1.73975 4.271,-2.44962 8.46388,-2.44962l11.70462,0c4.19438,0 6.88138,0.78762 8.46588,2.37012c2.76512,2.7685 3.55612,6.09225 3.55612,18.58838l0,2.13525c0,0.62987 -0.23637,0.94875 -0.95075,0.94875l-26.65275,0"/>
    <path fill="#333c46" fill-rule="nonzero" stroke-width="0.125" id="path3053" d="m444.597034,335.868911c-0.71037,0.711 -1.74312,1.02737 -4.34812,1.02737l-6.17337,0c-2.53175,0 -4.73138,-0.71387 -7.75138,-2.25c-0.18412,-0.09375 -0.35987,-0.18112 -0.55275,-0.27875l0,-23.25637c3.165,-1.58113 5.37838,-2.37113 7.99075,-2.37113l6.48675,0c2.605,0 3.63775,0.31638 4.34812,1.02738c1.18513,1.185 1.5025,3.4775 1.5025,13.05125c0,9.57275 -0.31737,11.86275 -1.5025,13.05025zm-2.37687,-34.48775l-5.76913,0c-3.56199,0 -5.30124,0.79387 -10.67962,5.22262l0,-5.13862l-8.22462,0l0,52.14987c2.96237,0 8.22462,0 8.22462,0l0,-14.5025c5.37838,4.34772 7.11763,5.13873 10.67963,5.13873l5.76912,0c4.59225,0 6.88475,-0.79101 8.7035,-2.60741c2.29163,-2.29494 3.401,-5.53757 3.401,-18.82519c0,-13.28863 -1.10937,-16.53375 -3.401,-18.82475c-1.81875,-1.81888 -4.11125,-2.61275 -8.7035,-2.61275"/>
    <path fill="#333c46" fill-rule="nonzero" stroke-width="0.125" id="path3055" d="m493.874664,303.835281c-1.5825,-1.5825 -3.6375,-2.45412 -7.35625,-2.45412l-6.72125,0c-3.56,0 -5.29875,0.79387 -10.68,5.22262l0,-16.27875c-2.5525,-1.40137 -5.2175,-2.42875 -8.16625,-3.06112c-0.0212,0.001 -0.037,0.01375 -0.0589,0.021l0,56.88774l8.22512,0l0,-33.06149c0.6025,-0.30125 1.165,-0.5635 1.7075,-0.80713c2.30875,-1.03662 4.16875,-1.564 6.28125,-1.564l5.5375,0c2.7675,0 3.55875,0.31638 4.42875,1.1875c0.79125,0.79 1.10625,2.05375 1.10625,4.11138l0,30.13374l8.23,0l0,-30.68749c0,-5.93263 -0.8725,-7.98875 -2.53375,-9.64988"/>
   </g>
  </g>
 </g>
</svg>